<svg height="320" version="1.1" width="320" xmlns="http://www.w3.org/2000/svg" xmlns:xlink="http://www.w3.org/1999/xlink" style="overflow: hidden; position: relative; left: -0.5px;" viewBox="0 0 320 320" preserveAspectRatio="xMidYMid meet" id="main_svg"><svg height="320" version="1.1" width="320" xmlns="http://www.w3.org/2000/svg" xmlns:xlink="http://www.w3.org/1999/xlink" style="overflow: hidden; position: relative;" viewBox="0 0 160 160" preserveAspectRatio="xMidYMid meet" id="imported_svg_layer_1"><path fill="url(#gradient_l92oggbjzc1y1w13v2bgz)" stroke="none" d="M0,80A80,80,0,1,0,160,80A80,80,0,1,0,0,80" stroke-width="0" opacity="1" fill-opacity="1" transform="matrix(1,0,0,1,0,0)" style="-webkit-tap-highlight-color: rgba(0, 0, 0, 0); opacity: 1; fill-opacity: 1; display: none;"></path><desc style="-webkit-tap-highlight-color: rgba(0, 0, 0, 0);">Created with Logotizer</desc><defs style="-webkit-tap-highlight-color: rgba(0, 0, 0, 0);"><linearGradient id="gradient_l92oggbjzc1y1w13v2bgz" x1="1.8369701987210297e-16" y1="0" x2="0" y2="1" style="-webkit-tap-highlight-color: rgba(0, 0, 0, 0);"><stop offset="0%" stop-color="#ffebb0" stop-opacity="1" style="-webkit-tap-highlight-color: rgba(0, 0, 0, 0);"></stop><stop offset="100%" stop-color="#762800" stop-opacity="1" style="-webkit-tap-highlight-color: rgba(0, 0, 0, 0);"></stop></linearGradient></defs></svg><svg height="320" version="1.1" width="320" xmlns="http://www.w3.org/2000/svg" xmlns:xlink="http://www.w3.org/1999/xlink" style="overflow: hidden; position: relative;" viewBox="0 0 160 160" preserveAspectRatio="xMidYMid meet" id="imported_svg_layer_2"><desc style="-webkit-tap-highlight-color: rgba(0, 0, 0, 0);">Created with Logotizer</desc><defs style="-webkit-tap-highlight-color: rgba(0, 0, 0, 0);"></defs><path fill="#a66060" stroke="#d5d5d5" d="M0,160V90H20V140H70V160Z" stroke-width="2" transform="matrix(1,0,0,1,0,0)" style="-webkit-tap-highlight-color: rgba(0, 0, 0, 0); cursor: move; display: none;"></path></svg><desc style="-webkit-tap-highlight-color: rgba(0, 0, 0, 0);">Created with Logotizer</desc><defs style="-webkit-tap-highlight-color: rgba(0, 0, 0, 0);"><linearGradient id="gradient_6hs7vb8u23joo17l7d57r" x1="1.8369701987210297e-16" y1="0" x2="0" y2="1" style="-webkit-tap-highlight-color: rgba(0, 0, 0, 0);"><stop offset="0%" stop-color="#19c2e2" stop-opacity="1" style="-webkit-tap-highlight-color: rgba(0, 0, 0, 0);"></stop><stop offset="100%" stop-color="#176ff5" stop-opacity="1" style="-webkit-tap-highlight-color: rgba(0, 0, 0, 0);"></stop></linearGradient><linearGradient id="gradient_4uookve427n4s2uq72rd6m" x1="1.8369701987210297e-16" y1="0" x2="0" y2="1" style="-webkit-tap-highlight-color: rgba(0, 0, 0, 0);"><stop offset="0%" stop-color="#19c2e2" stop-opacity="1" style="-webkit-tap-highlight-color: rgba(0, 0, 0, 0);"></stop><stop offset="100%" stop-color="#176ff5" stop-opacity="1" style="-webkit-tap-highlight-color: rgba(0, 0, 0, 0);"></stop></linearGradient></defs><path fill="url(#gradient_4uookve427n4s2uq72rd6m)" stroke="none" d="M-10.57,-58.8L-10.57,-30Q-10.57,-24.24,-11.29,-20.16Q-12.01,-16.08,-14.17,-10.92Q-16.33,-5.76,-21.73,-2.88Q-27.13,0,-35.53,0L-63.37,0Q-71.77,0,-77.17,-2.88Q-82.57,-5.76,-84.73,-10.92Q-86.89,-16.08,-87.61,-20.16Q-88.33,-24.24,-88.33,-30L-88.33,-138Q-88.33,-143.76,-87.61,-147.84Q-86.89,-151.92,-84.73,-157.08Q-82.57,-162.24,-77.17,-165.12Q-71.77,-168,-63.37,-168L-35.53,-168Q-27.13,-168,-21.73,-165.12Q-16.33,-162.24,-14.17,-157.08Q-12.01,-151.92,-11.29,-147.84Q-10.57,-143.76,-10.57,-138L-10.57,-114.24L-44.17,-114.24L-44.17,-144Q-44.17,-146.16,-45.73,-147.84Q-47.29,-149.52,-49.45,-149.52Q-51.37,-149.52,-53.05,-148.2Q-54.73,-146.88,-54.73,-144L-54.73,-24Q-54.73,-21.12,-53.05,-19.8Q-51.37,-18.48,-49.45,-18.48Q-47.29,-18.48,-45.73,-20.16Q-44.17,-21.84,-44.17,-24L-44.17,-58.8L-10.57,-58.8ZM26.39,0L4.79,-168L38.87,-168L47.99,-44.16L49.43,-44.16L58.55,-168L92.63,-168L71.03,0L26.39,0Z" opacity="1" fill-opacity="1" transform="matrix(1,0,0,1,160,244)" style="-webkit-tap-highlight-color: rgba(0, 0, 0, 0); opacity: 1; fill-opacity: 1;"></path></svg>