<svg style="display: none;">
  <symbol id="icon-mail" viewBox="0 0 492.313 492.313" xmlns="http://www.w3.org/2000/svg">
    <path d="M0,68.288v355.736h492.313V68.288H0z M472.62,404.332H19.692V159.03l226.462,144.835L472.62,159.032V404.332z
    M472.62,135.657L246.154,280.49L19.692,135.66v-47.68H472.62V135.657z"/>
  </symbol>

  <symbol id="icon-tg" viewBox="0 0 24 24" xmlns="http://www.w3.org/2000/svg">
    <path d="M21 5L2 12.5L9 13.5M21 5L18.5 20L9 13.5M21 5L9 13.5M9 13.5V19L12.2488 15.7229" />
  </symbol>

  <symbol id="icon-git" viewBox="0 0 24 24" xmlns="http://www.w3.org/2000/svg">
    <path d="M10.0172337,20.0036431 C10.022429,20.1264837 10.0091724,20.2463579 9.98330461,20.3676906 C9.93784953,20.5808973 
    9.85006902,20.806507 9.72581375,21.0149561 C9.37258963,21.6075205 8.77254382,22.0029294 8,22.0029294 C6.18009841,22.0029294 
    5.46583567,21.110101 4.57152331,18.8743201 C3.96583567,17.360101 3.68009841,17.0029294 3,17.0029294 L3,15.0029294 C4.81990159,15.0029294 
    5.53416433,15.8957579 6.42847669,18.1315388 C7.03416433,19.6457579 7.31990159,20.0029294 8,20.0029294 C8,19.7127644 7.99602627,19.4557363 
    7.98766336,19.10766 C7.96806324,18.2918745 7.96580921,18.1253294 8.00139994,17.9072328 C8.01562221,17.4311461 8.13853505,17.0933379 
    8.38499657,16.758055 C6.15319163,16.2722225 4.64792011,15.2688507 3.78397367,13.6414131 L3.46033692,12.8803116 C3.14504523,11.9742045 
    3,10.9475314 3,9.76182789 C3,8.3962705 3.41634612,7.17529446 4.19401809,6.15466942 C3.95142672,5.18452501 3.98465035,3.99922139 
    4.52030872,2.66060213 L4.69533986,2.22319636 L5.14406803,2.07965982 C5.20414701,2.06044211 5.27718427,2.04308516 5.36298939,2.02961795 
    C6.2367624,1.89247825 7.48010477,2.21967938 9.10554673,3.26084348 C10.0637668,3.03871956 11.0728464,2.92657377 12.0887705,2.92657377 C12.9966325,2.92657377 
    13.8994565,3.01809831 14.761632,3.19853941 C16.3430593,2.20820612 17.552239,1.89759865 18.4025017,2.02979376 C18.4873192,2.04298081 18.5596096,2.06000541 
    18.6191923,2.07890005 L19.0707147,2.22208531 L19.2459583,2.66215824 C19.7145535,3.83889806 19.7949778,4.92336373 19.6244695,5.87228979 C20.5184674,6.94500389 
    21,8.26378067 21,9.76182789 C21,11.0247658 20.9095208,11.9744236 20.64943,12.8982988 L20.374903,13.6516598 C19.6562828,15.2773712 18.071463,16.2919934 
    15.627532,16.7752488 C15.881555,17.1269685 16,17.4840164 16,18.0029294 L16,19.0029294 C16,19.4875328 16,19.5024553 15.9988971,20.0029332 C16.0011677,20.0388683 
    16.0041674,20.0564681 16.0074409,20.0674343 C16.0069051,20.0676207 16.0044248,20.7127858 16,22.0029294 C15.1482062,22.0029294 14.5148687,21.5875264 
    14.2033753,20.9322561 C14.0418761,20.5925196 13.9936266,20.2681196 14,19.9887282 L14,18.0029294 C14,17.9190828 13.9970903,17.9142333 13.7928932,17.7100362 
    C13.2470903,17.1642333 13,16.7524162 13,16.0029294 L13,15.098327 L13.9000749,15.0079345 C16.5793439,14.7388614 18.0365375,13.994809 18.5196779,12.9078386 
    L18.7454621,12.2906007 C18.925117,11.6452201 19,10.8592573 19,9.76182789 C19,8.5957377 18.5929046,7.6324677 17.8229924,6.86285829 L17.399809,6.43984136 
    L17.5725269,5.86695742 C17.7259675,5.35801396 17.7624331,4.7557886 17.6001079,4.06889646 C17.5731265,4.07573155 17.5450908,4.08318009 17.5159887,4.09128216 
    C16.9805442,4.24035094 16.3120315,4.56021479 15.5064471,5.09869159 L15.139019,5.34429154 L14.7100567,5.23792413 C13.880388,5.0321958 12.9888516,4.92657377 
    12.0887705,4.92657377 C11.0878626,4.92657377 10.0984637,5.05392119 9.18445917,5.30309711 L8.73840507,5.42470039 L8.3568182,5.1636581 C7.52362575,4.59367395 
    6.83145179,4.25470831 6.27642408,4.09636524 C6.23678449,4.08505652 6.19904057,4.07494077 6.16316427,4.06592263 C5.9695217,4.8609066 6.04611126,5.51405583 
    6.24223012,6.00416015 L6.47738305,6.59181128 L6.04688499,7.05581793 C5.36089731,7.79520071 5,8.69496705 5,9.76182789 C5,10.7385874 5.11434439,11.5479509 
    5.32388252,12.1576254 L5.58556699,12.7770588 C6.23973869,14.0045823 7.62920432,14.743076 10.1065792,15.0086252 L11,15.1043908 L11,16.0029294 C11,16.7524162 
    10.7529097,17.1642333 10.2071068,17.7100362 C10.0029097,17.9142333 10,17.9190828 10,18.0029294 L9.98276345,18.1877969 C9.97135799,18.2484289 9.97135799,18.404984 
    9.98708636,19.0596217 C9.99432024,19.3607065 9.99844271,19.5990116 9.99963477,19.8480351 C10.0115828,19.8995855 10.013389,19.9328439 10.0172337,20.0036431 Z"/>
  </symbol>

  <symbol id="icon-vk" viewBox="0 0 24 24" xmlns="http://www.w3.org/2000/svg">
    <path d="M23.405 16.865C22.8611 15.7695 22.1444 14.7688 21.2825 13.9013C20.9892 13.5603 20.6453 13.2238 20.3768 12.9612L20.3393 
    12.9245C20.2008 12.7889 20.0864 12.6764 19.9928 12.5795C21.1713 10.9407 22.18 9.18595 23.003 7.34222L23.0362 7.26783L23.0595 
    7.18976C23.1676 6.82687 23.2922 6.1368 22.8515 5.51317C22.396 4.86859 21.6666 4.75234 21.1782 4.75234H18.9311C18.4627 4.73087 
    17.9988 4.85751 17.6058 5.11498C17.2098 5.37439 16.9069 5.75278 16.7402 6.1951C16.2563 7.34779 15.6508 8.4442 14.9347 9.46598V6.83269C14.9347 
    6.4923 14.9027 5.92289 14.5382 5.44229C14.1018 4.86685 13.4707 4.75234 13.0326 4.75234H9.46708C9.00771 4.74172 8.56094 4.90597 
    8.2176 5.21259C7.866 5.52659 7.65052 5.96521 7.61687 6.43543L7.61369 6.47997V6.52463C7.61369 7.01011 7.80606 7.36822 7.95975 7.59344C8.02856 
    7.69427 8.10216 7.78606 8.14865 7.84403L8.15938 7.85741C8.20895 7.91923 8.24204 7.96049 8.27525 8.00566C8.3626 8.12448 8.48824 8.30768 8.52379 
    8.78174V10.2547C7.9091 9.24423 7.26066 7.89957 6.77276 6.46344L6.76527 6.4414L6.75697 6.41965C6.63532 6.10103 6.4402 5.63743 6.04941 5.28266C5.59288 
    4.86821 5.0529 4.75234 4.56182 4.75234H2.28187C1.78506 4.75234 1.18613 4.86857 0.739237 5.33999C0.299773 5.80358 0.25 6.35907 0.25 6.65442V6.78755L0.278039 
    6.91769C0.909544 9.84881 2.21076 12.5937 4.07946 14.9377C4.92668 16.2737 6.07468 17.3936 7.43213 18.2075C8.81124 19.0345 10.3671 19.5219 11.9715 19.6297L12.0133 
    19.6325H12.0553C12.7811 19.6325 13.5378 19.5699 14.1068 19.1907C14.8744 18.6792 14.9347 17.8936 14.9347 17.5021V16.3642C15.1317 16.5234 15.3761 16.7378 
    15.6753 17.0259C16.037 17.3879 16.325 17.7016 16.572 17.9754L16.7038 18.122L16.7046 18.1228C16.8964 18.3364 17.0852 18.5467 17.2571 18.7195C17.4732 18.9367 
    17.7396 19.1761 18.0745 19.3529C18.4371 19.5444 18.8177 19.631 19.222 19.631H21.5035C21.9841 19.631 22.6735 19.5173 23.1582 18.9554C23.6864 18.343 23.6461 
    17.5924 23.48 17.053L23.4501 16.956L23.405 16.865ZM17.6857 16.9706C17.4289 16.6859 17.1192 16.3484 16.7278 15.9571L16.7246 15.9539C15.3685 14.6464 14.7348 
    14.4186 14.2868 14.4186C14.0485 14.4186 13.7848 14.4454 13.6137 14.6585C13.5329 14.7591 13.4905 14.8805 13.4667 15.007C13.4429 15.1333 13.4347 15.2816 
    13.4347 15.4505V17.5021C13.4347 17.7569 13.3928 17.8639 13.275 17.9425C13.118 18.0471 12.7825 18.1319 12.0637 18.1325C10.6993 18.0395 9.37641 17.6244 
    8.20349 16.9211C7.02817 16.2164 6.03709 15.2425 5.31187 14.0797L5.30398 14.0671L5.29464 14.0554C3.55337 11.8881 2.34003 9.34571 1.7503 6.6291C1.7535 
    6.49814 1.78187 6.42045 1.82784 6.37195C1.87521 6.32198 1.98999 6.25234 2.28187 6.25234H4.56182C4.81544 6.25234 4.9467 6.30751 5.04117 6.39327C5.14827 
    6.4905 5.24116 6.65561 5.35401 6.95042C5.91362 8.5964 6.67038 10.1357 7.387 11.2675C7.74518 11.8332 8.09769 12.3041 8.41529 12.6368C8.57383 12.803 8.72932 
    12.9406 8.8777 13.0385C9.02132 13.1332 9.18414 13.2079 9.35158 13.2079C9.43994 13.2079 9.54328 13.1988 9.64279 13.1547C9.74983 13.1074 9.83291 13.0284 
    9.89158 12.9225C9.99536 12.7353 10.0238 12.458 10.0238 12.0947V8.73099L10.0233 8.7231C9.97146 7.90476 9.72439 7.44443 9.48381 7.11718C9.43108 
    7.04546 9.37909 6.98068 9.33359 6.92399L9.32113 6.90846C9.27117 6.84616 9.23142 6.79582 9.19876 6.74795C9.13891 6.66024 9.11571 6.59909 9.11381 
    6.53356C9.12162 6.45578 9.15828 6.38361 9.21675 6.33139C9.27744 6.27719 9.35686 6.24897 9.43816 6.25234H13.0326C13.2387 6.25234 13.3081 6.30262 
    13.343 6.34868C13.3923 6.4137 13.4347 6.54893 13.4347 6.83269V11.3613C13.4347 11.8992 13.6827 12.2634 14.0428 12.2634C14.4572 12.2634 14.7559 
    12.012 15.2783 11.4896L15.287 11.4809L15.2948 11.4713C16.4656 10.0436 17.4225 8.45298 18.1347 6.74943L18.1392 6.73666C18.1928 6.58613 18.2941 
    6.45726 18.4278 6.3697C18.5614 6.28215 18.72 6.24072 18.8794 6.25175L18.8881 6.25234H21.1782C21.4905 6.25234 21.5933 6.33183 21.6265 6.37884C21.6618 
    6.42885 21.6864 6.53604 21.6264 6.74625C20.8053 8.58266 19.7899 10.3258 18.598 11.9464L18.5905 11.9578C18.4748 12.1348 18.3479 12.3306 18.3295 
    12.5554C18.3098 12.7968 18.4143 13.0163 18.597 13.2515C18.7302 13.4484 19.0049 13.7173 19.2836 13.9901L19.3099 14.0158C19.6021 14.3018 19.9186 
    14.6116 20.1727 14.9116L20.1795 14.9195L20.1869 14.9269C20.9444 15.6825 21.5743 16.556 22.052 17.5132C22.1283 17.7738 22.0816 17.907 22.0223 
    17.9757C21.953 18.0561 21.7976 18.131 21.5035 18.131H19.222C19.0438 18.131 18.9063 18.0959 18.7749 18.0265C18.638 17.9542 18.4972 17.8392 
    18.3206 17.6617C18.1784 17.5187 18.023 17.3457 17.8334 17.1348C17.7864 17.0825 17.7373 17.0277 17.6857 16.9706Z" />
  </symbol> 
  <symbol id="icon-phone" viewBox="0 0 558.833 558.833" xmlns="http://www.w3.org/2000/svg">
    <g>
      <path d="M140.445,61.611v437.073c0,1.979,1.606,3.586,3.586,3.586h267.826c1.98,0,3.586-1.606,3.586-3.586V61.611
        c0-1.979-1.605-3.586-3.586-3.586H144.031C142.051,58.025,140.445,59.632,140.445,61.611z M147.617,65.197h260.654v429.901
        H147.617V65.197z"/>
      <path d="M298.55,506.134h-38.623c-6.847,0-12.421,5.575-12.421,12.412v7.727c0,6.847,5.574,12.412,12.421,12.412h38.623
        c6.848,0,12.422-5.575,12.422-12.412v-7.727C310.962,511.709,305.398,506.134,298.55,506.134z M303.791,526.272
        c0,2.888-2.352,5.24-5.25,5.24h-38.622c-2.897,0-5.25-2.353-5.25-5.24v-7.727c0-2.888,2.353-5.24,5.25-5.24h38.622
        c2.898,0,5.25,2.353,5.25,5.24V526.272z"/>
      <path d="M246.684,35.955h69.156c3.1,0,5.613-2.515,5.613-5.613c0-3.088-2.514-5.604-5.613-5.604h-69.156
        c-3.098,0-5.612,2.515-5.612,5.604C241.071,33.431,243.586,35.955,246.684,35.955z M246.684,27.119h69.156
        c1.779,0,3.223,1.444,3.223,3.213c0,1.778-1.443,3.222-3.223,3.222h-69.156c-1.778,0-3.222-1.444-3.222-3.222
        C243.462,28.563,244.905,27.119,246.684,27.119z"/>
      <circle cx="251.093" cy="30.342" r="1.606"/>
      <circle cx="255.787" cy="30.342" r="1.606"/>
      <circle cx="260.474" cy="30.342" r="1.606"/>
      <circle cx="265.159" cy="30.342" r="1.606"/>
      <circle cx="269.863" cy="30.342" r="1.606"/>
      <circle cx="274.549" cy="30.342" r="1.606"/>
      <circle cx="279.234" cy="30.342" r="1.606"/>
      <circle cx="283.921" cy="30.342" r="1.606"/>
      <circle cx="288.615" cy="30.342" r="1.606"/>
      <circle cx="293.32" cy="30.342" r="1.606"/>
      <circle cx="298.005" cy="30.342" r="1.606"/>
      <circle cx="302.691" cy="30.342" r="1.606"/>
      <circle cx="307.376" cy="30.342" r="1.606"/>
      <circle cx="312.082" cy="30.342" r="1.606"/>
      <circle cx="375.406" cy="32.044" r="3.901"/>
      <path d="M205.776,516.27h-18.58c-0.583,0-1.042,0.469-1.042,1.043v9.601c0,0.573,0.469,1.042,1.042,1.042s1.023-0.469,1.023-1.042
        v-8.568h16.524v8.568c0,0.573,0.478,1.042,1.033,1.042c0.574,0,1.042-0.469,1.042-1.042v-9.601
        C206.828,516.738,206.35,516.27,205.776,516.27z"/>
      <path d="M200.774,520.296h-8.578c-0.574,0-1.033,0.469-1.033,1.042c0,0.574,0.469,1.033,1.033,1.033h8.578
        c0.583,0,1.042-0.459,1.042-1.033C201.817,520.765,201.358,520.296,200.774,520.296z"/>
      <path d="M200.774,524.475h-8.578c-0.574,0-1.033,0.479-1.033,1.042c0,0.574,0.469,1.043,1.033,1.043h8.578
        c0.583,0,1.042-0.469,1.042-1.043C201.817,524.953,201.358,524.475,200.774,524.475z"/>
      <path d="M363.748,518.45h-7.152l0.201-0.507l-3.643,1.54l3.643,1.539l-0.201-0.497h7.152c2.162,0,3.922,1.702,3.922,3.815
        c0,2.104-1.76,3.806-3.922,3.806h-7.018c-0.584,0-1.023,0.469-1.023,1.033c0,0.573,0.449,1.042,1.023,1.042h7.018
        c3.309,0,5.996-2.648,5.996-5.891C369.744,521.09,367.056,518.45,363.748,518.45z"/>
      <path d="M116.261,42.486v473.86c0,23.428,19.058,42.486,42.486,42.486h241.338c23.428,0,42.486-19.059,42.486-42.486V42.486
        C442.572,19.058,423.513,0,400.085,0H158.748C135.319-0.009,116.261,19.049,116.261,42.486z M428.238,42.486v473.86
        c0,15.52-12.623,28.143-28.143,28.143H158.748c-15.52,0-28.143-12.623-28.143-28.143V42.486c0-15.52,12.623-28.143,28.143-28.143
        h241.338C415.615,14.334,428.238,26.966,428.238,42.486z"/>
    </g>
  </symbol>
</svg>