<svg style="display: none;">
  <symbol id="icon-mail" viewBox="0 0 492.313 492.313" xmlns="http://www.w3.org/2000/svg">
    <path d="M0,68.288v355.736h492.313V68.288H0z M472.62,404.332H19.692V159.03l226.462,144.835L472.62,159.032V404.332z
    M472.62,135.657L246.154,280.49L19.692,135.66v-47.68H472.62V135.657z"/>
  </symbol>

  <symbol id="icon-tg" viewBox="0 0 24 24" xmlns="http://www.w3.org/2000/svg">
    <path d="M21 5L2 12.5L9 13.5M21 5L18.5 20L9 13.5M21 5L9 13.5M9 13.5V19L12.2488 15.7229" />
  </symbol>

  <symbol id="icon-git" viewBox="0 0 24 24" xmlns="http://www.w3.org/2000/svg">
    <path d="M10.0172337,20.0036431 C10.022429,20.1264837 10.0091724,20.2463579 9.98330461,20.3676906 C9.93784953,20.5808973 
    9.85006902,20.806507 9.72581375,21.0149561 C9.37258963,21.6075205 8.77254382,22.0029294 8,22.0029294 C6.18009841,22.0029294 
    5.46583567,21.110101 4.57152331,18.8743201 C3.96583567,17.360101 3.68009841,17.0029294 3,17.0029294 L3,15.0029294 C4.81990159,15.0029294 
    5.53416433,15.8957579 6.42847669,18.1315388 C7.03416433,19.6457579 7.31990159,20.0029294 8,20.0029294 C8,19.7127644 7.99602627,19.4557363 
    7.98766336,19.10766 C7.96806324,18.2918745 7.96580921,18.1253294 8.00139994,17.9072328 C8.01562221,17.4311461 8.13853505,17.0933379 
    8.38499657,16.758055 C6.15319163,16.2722225 4.64792011,15.2688507 3.78397367,13.6414131 L3.46033692,12.8803116 C3.14504523,11.9742045 
    3,10.9475314 3,9.76182789 C3,8.3962705 3.41634612,7.17529446 4.19401809,6.15466942 C3.95142672,5.18452501 3.98465035,3.99922139 
    4.52030872,2.66060213 L4.69533986,2.22319636 L5.14406803,2.07965982 C5.20414701,2.06044211 5.27718427,2.04308516 5.36298939,2.02961795 
    C6.2367624,1.89247825 7.48010477,2.21967938 9.10554673,3.26084348 C10.0637668,3.03871956 11.0728464,2.92657377 12.0887705,2.92657377 C12.9966325,2.92657377 
    13.8994565,3.01809831 14.761632,3.19853941 C16.3430593,2.20820612 17.552239,1.89759865 18.4025017,2.02979376 C18.4873192,2.04298081 18.5596096,2.06000541 
    18.6191923,2.07890005 L19.0707147,2.22208531 L19.2459583,2.66215824 C19.7145535,3.83889806 19.7949778,4.92336373 19.6244695,5.87228979 C20.5184674,6.94500389 
    21,8.26378067 21,9.76182789 C21,11.0247658 20.9095208,11.9744236 20.64943,12.8982988 L20.374903,13.6516598 C19.6562828,15.2773712 18.071463,16.2919934 
    15.627532,16.7752488 C15.881555,17.1269685 16,17.4840164 16,18.0029294 L16,19.0029294 C16,19.4875328 16,19.5024553 15.9988971,20.0029332 C16.0011677,20.0388683 
    16.0041674,20.0564681 16.0074409,20.0674343 C16.0069051,20.0676207 16.0044248,20.7127858 16,22.0029294 C15.1482062,22.0029294 14.5148687,21.5875264 
    14.2033753,20.9322561 C14.0418761,20.5925196 13.9936266,20.2681196 14,19.9887282 L14,18.0029294 C14,17.9190828 13.9970903,17.9142333 13.7928932,17.7100362 
    C13.2470903,17.1642333 13,16.7524162 13,16.0029294 L13,15.098327 L13.9000749,15.0079345 C16.5793439,14.7388614 18.0365375,13.994809 18.5196779,12.9078386 
    L18.7454621,12.2906007 C18.925117,11.6452201 19,10.8592573 19,9.76182789 C19,8.5957377 18.5929046,7.6324677 17.8229924,6.86285829 L17.399809,6.43984136 
    L17.5725269,5.86695742 C17.7259675,5.35801396 17.7624331,4.7557886 17.6001079,4.06889646 C17.5731265,4.07573155 17.5450908,4.08318009 17.5159887,4.09128216 
    C16.9805442,4.24035094 16.3120315,4.56021479 15.5064471,5.09869159 L15.139019,5.34429154 L14.7100567,5.23792413 C13.880388,5.0321958 12.9888516,4.92657377 
    12.0887705,4.92657377 C11.0878626,4.92657377 10.0984637,5.05392119 9.18445917,5.30309711 L8.73840507,5.42470039 L8.3568182,5.1636581 C7.52362575,4.59367395 
    6.83145179,4.25470831 6.27642408,4.09636524 C6.23678449,4.08505652 6.19904057,4.07494077 6.16316427,4.06592263 C5.9695217,4.8609066 6.04611126,5.51405583 
    6.24223012,6.00416015 L6.47738305,6.59181128 L6.04688499,7.05581793 C5.36089731,7.79520071 5,8.69496705 5,9.76182789 C5,10.7385874 5.11434439,11.5479509 
    5.32388252,12.1576254 L5.58556699,12.7770588 C6.23973869,14.0045823 7.62920432,14.743076 10.1065792,15.0086252 L11,15.1043908 L11,16.0029294 C11,16.7524162 
    10.7529097,17.1642333 10.2071068,17.7100362 C10.0029097,17.9142333 10,17.9190828 10,18.0029294 L9.98276345,18.1877969 C9.97135799,18.2484289 9.97135799,18.404984 
    9.98708636,19.0596217 C9.99432024,19.3607065 9.99844271,19.5990116 9.99963477,19.8480351 C10.0115828,19.8995855 10.013389,19.9328439 10.0172337,20.0036431 Z"/>
  </symbol>

  <symbol id="icon-vk" viewBox="0 0 24 24" xmlns="http://www.w3.org/2000/svg">
    <path d="M23.405 16.865C22.8611 15.7695 22.1444 14.7688 21.2825 13.9013C20.9892 13.5603 20.6453 13.2238 20.3768 12.9612L20.3393 
    12.9245C20.2008 12.7889 20.0864 12.6764 19.9928 12.5795C21.1713 10.9407 22.18 9.18595 23.003 7.34222L23.0362 7.26783L23.0595 
    7.18976C23.1676 6.82687 23.2922 6.1368 22.8515 5.51317C22.396 4.86859 21.6666 4.75234 21.1782 4.75234H18.9311C18.4627 4.73087 
    17.9988 4.85751 17.6058 5.11498C17.2098 5.37439 16.9069 5.75278 16.7402 6.1951C16.2563 7.34779 15.6508 8.4442 14.9347 9.46598V6.83269C14.9347 
    6.4923 14.9027 5.92289 14.5382 5.44229C14.1018 4.86685 13.4707 4.75234 13.0326 4.75234H9.46708C9.00771 4.74172 8.56094 4.90597 
    8.2176 5.21259C7.866 5.52659 7.65052 5.96521 7.61687 6.43543L7.61369 6.47997V6.52463C7.61369 7.01011 7.80606 7.36822 7.95975 7.59344C8.02856 
    7.69427 8.10216 7.78606 8.14865 7.84403L8.15938 7.85741C8.20895 7.91923 8.24204 7.96049 8.27525 8.00566C8.3626 8.12448 8.48824 8.30768 8.52379 
    8.78174V10.2547C7.9091 9.24423 7.26066 7.89957 6.77276 6.46344L6.76527 6.4414L6.75697 6.41965C6.63532 6.10103 6.4402 5.63743 6.04941 5.28266C5.59288 
    4.86821 5.0529 4.75234 4.56182 4.75234H2.28187C1.78506 4.75234 1.18613 4.86857 0.739237 5.33999C0.299773 5.80358 0.25 6.35907 0.25 6.65442V6.78755L0.278039 
    6.91769C0.909544 9.84881 2.21076 12.5937 4.07946 14.9377C4.92668 16.2737 6.07468 17.3936 7.43213 18.2075C8.81124 19.0345 10.3671 19.5219 11.9715 19.6297L12.0133 
    19.6325H12.0553C12.7811 19.6325 13.5378 19.5699 14.1068 19.1907C14.8744 18.6792 14.9347 17.8936 14.9347 17.5021V16.3642C15.1317 16.5234 15.3761 16.7378 
    15.6753 17.0259C16.037 17.3879 16.325 17.7016 16.572 17.9754L16.7038 18.122L16.7046 18.1228C16.8964 18.3364 17.0852 18.5467 17.2571 18.7195C17.4732 18.9367 
    17.7396 19.1761 18.0745 19.3529C18.4371 19.5444 18.8177 19.631 19.222 19.631H21.5035C21.9841 19.631 22.6735 19.5173 23.1582 18.9554C23.6864 18.343 23.6461 
    17.5924 23.48 17.053L23.4501 16.956L23.405 16.865ZM17.6857 16.9706C17.4289 16.6859 17.1192 16.3484 16.7278 15.9571L16.7246 15.9539C15.3685 14.6464 14.7348 
    14.4186 14.2868 14.4186C14.0485 14.4186 13.7848 14.4454 13.6137 14.6585C13.5329 14.7591 13.4905 14.8805 13.4667 15.007C13.4429 15.1333 13.4347 15.2816 
    13.4347 15.4505V17.5021C13.4347 17.7569 13.3928 17.8639 13.275 17.9425C13.118 18.0471 12.7825 18.1319 12.0637 18.1325C10.6993 18.0395 9.37641 17.6244 
    8.20349 16.9211C7.02817 16.2164 6.03709 15.2425 5.31187 14.0797L5.30398 14.0671L5.29464 14.0554C3.55337 11.8881 2.34003 9.34571 1.7503 6.6291C1.7535 
    6.49814 1.78187 6.42045 1.82784 6.37195C1.87521 6.32198 1.98999 6.25234 2.28187 6.25234H4.56182C4.81544 6.25234 4.9467 6.30751 5.04117 6.39327C5.14827 
    6.4905 5.24116 6.65561 5.35401 6.95042C5.91362 8.5964 6.67038 10.1357 7.387 11.2675C7.74518 11.8332 8.09769 12.3041 8.41529 12.6368C8.57383 12.803 8.72932 
    12.9406 8.8777 13.0385C9.02132 13.1332 9.18414 13.2079 9.35158 13.2079C9.43994 13.2079 9.54328 13.1988 9.64279 13.1547C9.74983 13.1074 9.83291 13.0284 
    9.89158 12.9225C9.99536 12.7353 10.0238 12.458 10.0238 12.0947V8.73099L10.0233 8.7231C9.97146 7.90476 9.72439 7.44443 9.48381 7.11718C9.43108 
    7.04546 9.37909 6.98068 9.33359 6.92399L9.32113 6.90846C9.27117 6.84616 9.23142 6.79582 9.19876 6.74795C9.13891 6.66024 9.11571 6.59909 9.11381 
    6.53356C9.12162 6.45578 9.15828 6.38361 9.21675 6.33139C9.27744 6.27719 9.35686 6.24897 9.43816 6.25234H13.0326C13.2387 6.25234 13.3081 6.30262 
    13.343 6.34868C13.3923 6.4137 13.4347 6.54893 13.4347 6.83269V11.3613C13.4347 11.8992 13.6827 12.2634 14.0428 12.2634C14.4572 12.2634 14.7559 
    12.012 15.2783 11.4896L15.287 11.4809L15.2948 11.4713C16.4656 10.0436 17.4225 8.45298 18.1347 6.74943L18.1392 6.73666C18.1928 6.58613 18.2941 
    6.45726 18.4278 6.3697C18.5614 6.28215 18.72 6.24072 18.8794 6.25175L18.8881 6.25234H21.1782C21.4905 6.25234 21.5933 6.33183 21.6265 6.37884C21.6618 
    6.42885 21.6864 6.53604 21.6264 6.74625C20.8053 8.58266 19.7899 10.3258 18.598 11.9464L18.5905 11.9578C18.4748 12.1348 18.3479 12.3306 18.3295 
    12.5554C18.3098 12.7968 18.4143 13.0163 18.597 13.2515C18.7302 13.4484 19.0049 13.7173 19.2836 13.9901L19.3099 14.0158C19.6021 14.3018 19.9186 
    14.6116 20.1727 14.9116L20.1795 14.9195L20.1869 14.9269C20.9444 15.6825 21.5743 16.556 22.052 17.5132C22.1283 17.7738 22.0816 17.907 22.0223 
    17.9757C21.953 18.0561 21.7976 18.131 21.5035 18.131H19.222C19.0438 18.131 18.9063 18.0959 18.7749 18.0265C18.638 17.9542 18.4972 17.8392 
    18.3206 17.6617C18.1784 17.5187 18.023 17.3457 17.8334 17.1348C17.7864 17.0825 17.7373 17.0277 17.6857 16.9706Z" />
  </symbol> 
  <symbol id="icon-phone" viewBox="0 0 558.833 558.833" xmlns="http://www.w3.org/2000/svg">
    <g>
      <path d="M140.445,61.611v437.073c0,1.979,1.606,3.586,3.586,3.586h267.826c1.98,0,3.586-1.606,3.586-3.586V61.611
        c0-1.979-1.605-3.586-3.586-3.586H144.031C142.051,58.025,140.445,59.632,140.445,61.611z M147.617,65.197h260.654v429.901
        H147.617V65.197z"/>
      <path d="M298.55,506.134h-38.623c-6.847,0-12.421,5.575-12.421,12.412v7.727c0,6.847,5.574,12.412,12.421,12.412h38.623
        c6.848,0,12.422-5.575,12.422-12.412v-7.727C310.962,511.709,305.398,506.134,298.55,506.134z M303.791,526.272
        c0,2.888-2.352,5.24-5.25,5.24h-38.622c-2.897,0-5.25-2.353-5.25-5.24v-7.727c0-2.888,2.353-5.24,5.25-5.24h38.622
        c2.898,0,5.25,2.353,5.25,5.24V526.272z"/>
      <path d="M246.684,35.955h69.156c3.1,0,5.613-2.515,5.613-5.613c0-3.088-2.514-5.604-5.613-5.604h-69.156
        c-3.098,0-5.612,2.515-5.612,5.604C241.071,33.431,243.586,35.955,246.684,35.955z M246.684,27.119h69.156
        c1.779,0,3.223,1.444,3.223,3.213c0,1.778-1.443,3.222-3.223,3.222h-69.156c-1.778,0-3.222-1.444-3.222-3.222
        C243.462,28.563,244.905,27.119,246.684,27.119z"/>
      <circle cx="251.093" cy="30.342" r="1.606"/>
      <circle cx="255.787" cy="30.342" r="1.606"/>
      <circle cx="260.474" cy="30.342" r="1.606"/>
      <circle cx="265.159" cy="30.342" r="1.606"/>
      <circle cx="269.863" cy="30.342" r="1.606"/>
      <circle cx="274.549" cy="30.342" r="1.606"/>
      <circle cx="279.234" cy="30.342" r="1.606"/>
      <circle cx="283.921" cy="30.342" r="1.606"/>
      <circle cx="288.615" cy="30.342" r="1.606"/>
      <circle cx="293.32" cy="30.342" r="1.606"/>
      <circle cx="298.005" cy="30.342" r="1.606"/>
      <circle cx="302.691" cy="30.342" r="1.606"/>
      <circle cx="307.376" cy="30.342" r="1.606"/>
      <circle cx="312.082" cy="30.342" r="1.606"/>
      <circle cx="375.406" cy="32.044" r="3.901"/>
      <path d="M205.776,516.27h-18.58c-0.583,0-1.042,0.469-1.042,1.043v9.601c0,0.573,0.469,1.042,1.042,1.042s1.023-0.469,1.023-1.042
        v-8.568h16.524v8.568c0,0.573,0.478,1.042,1.033,1.042c0.574,0,1.042-0.469,1.042-1.042v-9.601
        C206.828,516.738,206.35,516.27,205.776,516.27z"/>
      <path d="M200.774,520.296h-8.578c-0.574,0-1.033,0.469-1.033,1.042c0,0.574,0.469,1.033,1.033,1.033h8.578
        c0.583,0,1.042-0.459,1.042-1.033C201.817,520.765,201.358,520.296,200.774,520.296z"/>
      <path d="M200.774,524.475h-8.578c-0.574,0-1.033,0.479-1.033,1.042c0,0.574,0.469,1.043,1.033,1.043h8.578
        c0.583,0,1.042-0.469,1.042-1.043C201.817,524.953,201.358,524.475,200.774,524.475z"/>
      <path d="M363.748,518.45h-7.152l0.201-0.507l-3.643,1.54l3.643,1.539l-0.201-0.497h7.152c2.162,0,3.922,1.702,3.922,3.815
        c0,2.104-1.76,3.806-3.922,3.806h-7.018c-0.584,0-1.023,0.469-1.023,1.033c0,0.573,0.449,1.042,1.023,1.042h7.018
        c3.309,0,5.996-2.648,5.996-5.891C369.744,521.09,367.056,518.45,363.748,518.45z"/>
      <path d="M116.261,42.486v473.86c0,23.428,19.058,42.486,42.486,42.486h241.338c23.428,0,42.486-19.059,42.486-42.486V42.486
        C442.572,19.058,423.513,0,400.085,0H158.748C135.319-0.009,116.261,19.049,116.261,42.486z M428.238,42.486v473.86
        c0,15.52-12.623,28.143-28.143,28.143H158.748c-15.52,0-28.143-12.623-28.143-28.143V42.486c0-15.52,12.623-28.143,28.143-28.143
        h241.338C415.615,14.334,428.238,26.966,428.238,42.486z"/>
    </g>
  </symbol>
  <symbol id="mishka" viewBox="0 0 149 72" xmlns="http://www.w3.org/2000/svg">
    <g>
      <path d="M144.16 31.1053C142.65 32.1912 141.039 32.9809 139.428 33.8693C139.428 32.1912 139.328 30.4143 138.824 28.8349C138.925 28.5388 138.925 28.1439 138.925 27.8478C139.328 24.8864 139.63 20.8391 136.912 18.7662C136.61 18.47 135.704 18.7662 134.999 19.0623C134.798 18.8649 134.697 18.7662 134.496 18.6674C134.395 18.47 134.295 18.1739 134.295 17.9765C134.295 17.8777 134.093 17.779 133.892 17.779C134.194 17.3842 134.194 16.9893 133.489 16.6932C133.087 16.4958 132.684 16.397 132.382 16.2983C132.281 16.1996 132.281 16.1996 132.181 16.1996C131.275 15.9035 130.268 15.7061 129.261 15.5086C129.362 15.2125 129.664 14.7189 129.865 14.5215C129.966 14.3241 130.167 14.2254 130.268 14.1266C130.369 14.0279 130.369 14.0279 130.469 13.9292C130.469 13.9292 130.57 13.9292 130.57 13.8305C130.57 13.8305 130.57 13.8305 130.671 13.7318C131.073 13.4356 131.476 12.8434 130.872 12.5472C130.268 12.2511 129.362 12.4485 128.859 12.7447C127.953 13.4356 127.248 14.1266 126.745 15.1138C124.732 14.9163 122.718 14.9163 120.604 15.0151C120.705 14.9163 120.705 14.8176 120.705 14.7189C120.906 14.1266 119.799 14.2254 119.497 14.2254C117.886 14.4228 116.376 14.6202 114.766 14.8176C116.175 11.0665 117.886 6.3283 115.772 2.67591C114.564 0.602929 111.847 0.109363 109.632 0.0106495C107.216 -0.0880637 104.699 0.504216 102.585 1.59006C97.7536 4.1566 95.4383 9.19098 94.331 14.5215C93.8277 13.8305 92.0157 14.1266 91.7137 15.0151C91.613 15.3112 91.5124 15.6073 91.4117 16.0022C91.2104 16.1996 91.1097 16.397 91.1097 16.5945C91.1097 16.6932 91.1097 16.6932 91.1097 16.7919C91.0091 16.7919 91.0091 16.7919 90.9084 16.7919C90.9084 16.6932 90.9084 16.5945 91.0091 16.4958C91.1097 16.397 91.2104 16.2983 91.3111 16.1009C91.915 13.8305 92.519 11.5601 93.2237 9.3884C93.5257 8.5987 90.7071 8.99355 90.4051 9.78326C90.0024 10.9678 89.5998 12.1524 89.2978 13.3369C89.0964 13.4356 88.8951 13.5344 88.8951 13.6331V13.7318C88.7945 13.6331 88.5931 13.5344 88.3918 13.5344C88.3918 13.2382 88.3918 12.9421 88.3918 12.5472C88.3918 12.1524 85.5732 12.5472 85.5732 13.3369C85.5732 13.8305 85.5732 14.3241 85.5732 14.9163C85.3719 15.0151 85.2712 15.1138 85.0699 15.2125C84.9692 15.3112 84.9692 15.3112 84.8686 15.4099C84.7679 15.5086 84.7679 15.6073 84.7679 15.6073V15.7061C84.7679 15.7061 84.7679 15.706 84.6672 15.8048C84.5666 15.9035 84.4659 16.1009 84.6672 16.2983C84.8686 16.4958 85.1705 16.4958 85.3719 16.4958H85.4725C85.4725 16.6932 85.4725 16.7919 85.4725 16.9893C85.2712 16.9893 84.9692 16.9893 84.7679 16.9893L84.3652 16.8906C84.3652 16.4958 83.6606 16.397 82.9559 16.5945V16.4958C82.8553 15.9035 82.7546 15.3112 82.7546 14.7189C82.9559 14.6202 83.2579 14.5215 83.4593 14.4228C83.6606 14.3241 83.7612 14.2254 83.7612 14.0279C83.7612 13.9292 83.7612 13.9292 83.7612 13.8305C83.7612 13.6331 83.3586 13.6331 83.2579 13.6331C83.0566 13.6331 82.8553 13.6331 82.6539 13.6331C82.5533 12.3498 82.5533 11.0665 82.5533 9.78326C82.5533 8.99355 79.7347 9.48712 79.7347 10.573C79.7347 12.3498 79.7347 14.1266 79.936 15.8048C79.8354 15.8048 79.7347 15.8048 79.634 15.8048C79.634 15.3112 79.634 14.8176 79.634 14.3241C79.634 13.3369 78.3254 13.1395 77.5201 13.5344C77.8221 13.2382 78.0234 12.9421 77.9227 12.5472C77.5201 11.1652 77.1174 9.78326 76.9161 8.30256C76.7148 6.92057 73.8962 7.61157 74.0975 9.09227C74.2988 10.573 74.7015 11.9549 75.1041 13.3369C75.3055 14.1266 76.4128 14.2254 77.2181 13.8305C77.0168 14.0279 76.8154 14.3241 76.8154 14.6202C76.8154 14.8176 76.8154 15.0151 76.8154 15.2125C76.5134 14.9163 76.3121 14.9163 75.9095 14.9163C74.8022 14.9163 74.1982 15.8048 74.5002 16.397C74.2988 16.397 74.1982 16.2983 73.9968 16.2983C73.5942 15.1138 73.2922 13.8305 73.2922 12.5472C73.2922 11.6588 71.9836 11.5601 71.1782 11.8562C71.1782 11.7575 71.1782 11.7575 71.1782 11.6588C70.7756 10.8691 70.5743 9.98068 70.3729 9.19098C70.0709 7.90771 67.1517 8.5987 67.5543 9.98068C67.7557 10.573 67.8563 11.264 68.0577 11.8562C68.0577 11.8562 68.0577 11.8562 67.957 11.8562C67.655 11.9549 67.353 12.0537 67.051 12.2511C66.2457 12.3498 65.2391 12.8434 65.2391 13.4356C65.3397 13.9292 65.3397 14.4228 65.4404 14.8176C65.0377 14.9163 64.4338 14.9163 63.9304 15.0151C63.6284 14.2254 63.4271 13.4356 63.3265 12.6459C63.2258 11.7575 61.7158 11.7575 61.0112 12.3498C60.2059 10.2768 59.1992 8.40127 57.8906 6.62443C55.1727 3.26819 50.6428 2.08363 46.5156 2.97205C44.6029 3.3669 42.791 4.1566 41.4823 5.53859C40.2744 6.92057 40.0731 8.5987 40.2744 10.2768C40.4757 11.7575 40.8784 14.2254 41.885 16.1996C41.4823 16.1996 41.1804 16.1996 40.979 16.2983C40.677 16.397 40.375 16.4958 40.1737 16.6932C38.2611 16.6932 36.2478 16.6932 34.3352 16.5945C30.1073 16.397 25.9801 15.7061 21.7522 15.9035C20.8462 15.9035 20.2422 16.5945 20.2422 17.1867C19.2356 17.6803 18.5309 18.47 18.1283 19.4572C16.417 18.3713 14.605 17.1867 12.7931 16.2983C12.0884 15.9035 9.47118 16.9893 10.4778 17.4829C12.2898 18.3713 14.1017 19.5559 15.813 20.6417C16.3163 20.9378 17.1216 20.7404 17.625 20.543C17.625 20.543 17.7256 20.543 17.8263 20.4443C17.5243 21.8263 17.625 23.5044 18.0276 24.8864C18.0276 24.9851 18.1283 25.0838 18.229 25.1825C18.229 25.4787 18.229 25.8735 18.229 26.1697C18.229 26.2684 18.229 26.2684 18.229 26.3671C17.8263 26.5645 17.5243 26.8606 17.4236 27.1568C17.2223 28.5388 17.1216 29.9208 17.1216 31.3027C16.8197 31.5002 16.6183 31.7963 16.6183 32.0924C16.417 35.35 16.6183 38.7062 17.1216 41.9638C17.323 44.629 17.8263 47.1956 18.3296 49.8608C18.4303 50.2557 18.4303 50.6505 18.5309 51.1441C18.229 52.2299 18.1283 53.5132 18.3296 54.5991C17.4236 54.7965 16.6183 55.4875 17.1216 56.1785C17.927 57.363 18.7323 58.1527 19.7389 58.745C19.1349 58.6463 18.3296 58.8437 17.8263 59.3373C17.021 60.127 16.115 60.818 15.3097 61.6077C14.907 62.0025 15.0077 62.4961 15.6117 62.6935C16.3163 62.891 17.1216 62.5948 17.625 62.2C18.4303 61.4103 19.3363 60.7193 20.1416 59.9296C20.3429 59.7321 20.4436 59.436 20.3429 59.2386C23.5641 60.9167 27.5907 60.5218 31.5166 60.127C30.6106 61.7064 30.0066 63.3845 29.302 65.0627C29 65.7536 31.8186 65.4575 32.1206 64.6678C32.7246 62.9897 33.3286 61.4103 34.2345 59.8309C37.9591 59.9296 41.7843 59.9296 45.5089 59.9296C45.6096 60.127 45.9116 60.2257 46.2136 60.2257C49.5355 60.5219 52.7567 60.127 55.978 59.5347C60.8098 59.3373 65.6417 59.0411 70.4736 58.745C78.0234 58.5476 85.6739 58.4489 93.2237 58.4489C93.3243 58.5476 93.425 58.6463 93.5257 58.745C93.8277 59.0411 94.1296 59.0411 94.5323 59.0411C94.633 59.0411 94.633 59.0411 94.7336 59.0411C95.4383 59.0411 96.1429 59.1399 96.8476 59.1399C97.0489 59.1399 97.1496 59.2386 97.4516 59.1399C98.2569 59.2386 99.0622 59.2386 99.7668 59.3373C99.9682 59.5347 100.27 59.6334 100.572 59.7321C104.397 60.0283 108.223 60.2257 112.048 60.4231C112.149 60.6206 112.551 60.7193 112.853 60.7193C120 60.818 128.255 63.4832 134.597 59.0411C135.1 58.6463 134.899 58.1527 134.295 58.054C134.194 58.054 134.093 58.054 133.993 58.054C135.201 55.29 136.207 52.5261 136.912 49.5647C137.315 49.3673 137.516 49.0711 137.516 48.6763C137.516 47.4917 137.717 46.3071 137.919 45.1226C138.12 44.2342 138.22 43.3457 138.321 42.4573C138.724 40.2856 139.126 38.1139 139.328 36.041C141.643 34.9551 143.858 33.7706 145.972 32.2899C147.582 31.1053 145.166 30.4143 144.16 31.1053ZM88.3918 16.2983L88.2911 16.397C88.3918 16.1009 88.3918 15.8048 88.4925 15.5086H88.5931C88.5931 15.7061 88.4925 16.0022 88.3918 16.2983Z" fill="black"/>
      <path d="M63.7289 12.5468C63.8296 12.7442 64.3329 12.7442 64.5343 12.7442C64.9369 12.7442 65.3396 12.6455 65.6416 12.5468C66.0442 12.3494 66.7489 11.9545 66.4469 11.461C66.0442 10.8687 65.8429 10.2764 65.4402 9.68412C65.3396 9.48669 64.8362 9.48669 64.6349 9.48669C64.2323 9.48669 63.8296 9.58541 63.5276 9.68412C63.125 9.88155 62.4203 10.2764 62.7223 10.77C63.0243 11.3622 63.3263 12.0532 63.7289 12.5468Z" fill="black"/>
      <path d="M20.8461 10.8691C21.0474 11.4613 21.9534 11.4613 22.4567 11.3626C22.96 11.2639 23.866 10.7703 23.6647 10.0793C23.4633 9.48707 23.262 8.79608 22.7587 8.30251C22.2554 7.80894 21.4501 7.90766 20.8461 8.10508C20.4434 8.30251 19.6381 8.89479 20.1414 9.38835C20.5441 9.98063 20.6447 10.2768 20.8461 10.8691Z" fill="black"/>
      <path d="M30.9124 13.8306C31.7177 13.8306 34.033 12.5474 32.1203 12.5474C31.2144 12.5474 28.9998 13.8306 30.9124 13.8306Z" fill="black"/>
      <path d="M123.423 12.2512C123.725 12.3499 124.128 12.2512 124.53 12.1525C124.832 12.0538 125.235 11.9551 125.436 11.6589C125.839 11.2641 126.141 10.968 126.443 10.4744C126.544 10.277 126.644 10.0795 126.443 9.88211C126.242 9.68468 125.94 9.68468 125.638 9.58597C125.235 9.58597 124.832 9.68468 124.53 9.78339C124.228 9.88211 123.926 10.0795 123.725 10.3757C123.624 10.5731 123.524 10.7705 123.322 10.8692C123.222 10.968 123.222 10.968 123.121 11.0667C122.92 11.2641 122.819 11.4615 122.819 11.6589C122.92 12.0538 123.121 12.1525 123.423 12.2512Z" fill="black"/>
      <path d="M136.811 17.5816C137.415 17.4829 138.22 17.3841 138.723 16.8906C140.032 15.8047 141.341 14.7189 142.347 13.3369C142.649 12.942 141.341 13.1395 141.24 13.1395C140.737 13.2382 139.931 13.4356 139.529 13.8305C138.623 15.1137 137.314 16.1009 136.106 17.1867C135.603 17.5816 136.509 17.5816 136.811 17.5816Z" fill="black"/>
      <path d="M147.683 44.3333C146.072 44.3333 144.461 44.3333 142.75 44.3333C142.146 44.3333 141.24 44.8268 141.139 45.4191C141.039 46.1101 141.945 46.3075 142.448 46.3075C144.059 46.3075 145.669 46.3075 147.381 46.3075C147.985 46.3075 148.891 45.814 148.991 45.2217C149.092 44.5307 148.287 44.3333 147.683 44.3333Z" fill="black"/>
      <path d="M57.3873 60.1268C56.884 60.2255 55.978 60.423 55.7767 60.9165C55.2734 62.1998 54.7701 63.4831 54.3674 64.7663C54.1661 65.4573 56.9847 65.0625 57.186 64.2728C57.5887 62.9895 57.9913 61.7062 58.5953 60.423C58.7966 59.9294 57.5887 60.1268 57.3873 60.1268Z" fill="black"/>
      <path d="M62.0179 62.6935C61.7159 62.6935 61.3133 62.7922 61.0113 62.8909C60.7093 62.9896 60.3066 63.0883 60.0046 63.2858C59.904 63.3845 59.7026 63.4832 59.7026 63.6806C59.7026 63.7793 59.7026 63.878 59.7026 63.9767C59.7026 64.0755 59.602 64.1742 59.602 64.2729C59.5013 64.3716 59.5013 64.4703 59.602 64.569C59.8033 64.6677 60.1053 64.6677 60.3066 64.6677C60.7093 64.6677 61.0113 64.569 61.4139 64.3716C61.6153 64.2729 62.0179 64.1742 62.2192 63.9767C62.3199 63.7793 62.4206 63.6806 62.5212 63.4832C62.5212 63.2858 62.5212 63.187 62.5212 62.9896C62.5212 62.6935 62.1186 62.6935 62.0179 62.6935Z" fill="black"/>
      <path d="M117.483 66.3456C117.081 65.6546 114.464 66.6417 114.665 67.1353C115.47 68.7147 116.577 70.1954 117.584 71.7748C117.987 72.4658 120.604 71.38 120.403 70.9851C119.396 69.4057 118.289 67.925 117.483 66.3456Z" fill="black"/>
      <path d="M121.51 63.9767C121.208 63.3844 120.403 63.3844 119.9 63.5818C119.497 63.6805 118.39 64.1741 118.692 64.7664C119.094 65.5561 119.497 66.3458 119.9 67.0368C120.202 67.6291 121.007 67.6291 121.51 67.4316C121.913 67.3329 123.02 66.8394 122.718 66.2471C122.315 65.5561 121.913 64.7664 121.51 63.9767Z" fill="black"/>
      <path d="M5.74646 42.6544C4.2365 43.0492 2.72654 43.2467 1.21658 43.6415C0.713257 43.7402 -0.0920558 44.2338 0.00860824 44.9248C0.209936 45.6158 1.11591 45.6158 1.7199 45.5171C3.22986 45.1222 4.73982 44.9248 6.24978 44.5299C6.7531 44.4312 7.55841 43.839 7.45775 43.2467C7.15576 42.5557 6.24978 42.5557 5.74646 42.6544Z" fill="black"/>
      <path d="M44.0996 39.6922C43.9989 37.027 43.5963 34.3617 43.5963 31.6964C43.5963 29.5248 43.9989 27.2544 43.1936 25.1814C43.1936 24.9839 43.2943 24.6878 43.2943 24.4904C43.4956 23.4045 39.9724 23.9968 39.4691 24.984C39.1671 25.2801 38.9657 25.5762 39.0664 25.9711C39.0664 26.0698 39.1671 26.1685 39.1671 26.2672C38.4624 29.426 37.5564 32.5849 36.5498 35.645C36.1471 36.8295 35.6438 38.0141 35.2412 39.1987C34.6372 38.1128 34.0332 37.027 33.5299 35.8424C32.1206 32.3874 30.9126 28.9325 29.2013 25.6749C29.4026 24.1942 25.9801 24.293 25.2754 25.6749C24.4701 27.3531 24.5708 29.0312 24.8728 30.9067C25.1748 32.9797 25.2754 34.954 25.2754 37.027C25.2754 40.9755 25.6781 44.924 25.6781 48.8726C25.2754 49.2674 25.1748 49.761 25.5774 50.2545C25.7787 50.452 25.9801 50.6494 26.1814 50.8468C27.0874 51.5378 29.7046 50.9455 29.7046 49.5635C29.7046 45.4176 29.4026 41.3703 29.302 37.2244C29.302 36.8295 29.302 36.4347 29.302 36.0398C29.4026 36.1385 29.4026 36.336 29.5033 36.4347C30.1073 38.0141 30.8119 39.5935 31.7179 41.0742C32.6239 42.5549 33.0266 44.1343 33.5299 45.7137C33.3285 45.9112 33.2279 46.2073 33.3285 46.4047C33.3285 46.6021 33.4292 46.7009 33.6305 46.7996C34.2345 47.3918 35.5432 47.0957 36.1471 46.7996C36.4491 46.7009 36.7511 46.5034 36.9525 46.4047C37.2544 46.2073 37.8584 45.7137 37.6571 45.2202C37.6571 45.1214 37.5564 45.0227 37.5564 44.924C38.0598 43.6408 38.2611 42.3575 38.5631 40.9755C38.8651 39.5935 39.3684 38.2115 39.8717 36.8295C39.9724 37.4218 39.9724 38.1128 40.073 38.7051C40.2744 41.2716 40.073 43.7395 40.073 46.306C40.073 47.1944 40.1737 47.8854 40.2744 48.7738C40.375 49.07 40.677 50.5507 40.5764 50.6494C39.9724 51.2417 40.1737 51.9327 40.979 52.0314C41.885 52.2288 43.093 51.9327 43.7976 51.3404C45.0056 50.2545 44.4016 48.4777 44.2003 47.0957C43.5963 44.7266 44.0996 42.0613 44.0996 39.6922Z" fill="white"/>
      <path d="M52.5556 40.384C52.4549 38.4097 51.7503 36.5342 51.7503 34.5599C51.7503 32.2895 51.9516 30.0191 51.5489 27.7487C51.4483 27.0577 47.4217 27.8474 47.5224 28.8346C47.8244 30.9075 47.7237 33.0792 47.7237 35.1522C47.7237 37.2252 48.227 39.002 48.4284 41.075C48.7304 43.148 48.3277 45.2209 48.529 47.2939C48.6297 48.2811 49.3343 50.0579 48.6297 50.8476C48.227 51.3412 50.1397 51.1437 50.2403 51.1437C51.0456 51.045 52.0523 50.7489 52.5556 50.1566C53.2602 49.3669 52.7569 47.7875 52.6563 46.8004C52.4549 44.53 52.6563 42.457 52.5556 40.384Z" fill="white"/>
      <path d="M69.165 37.0275C67.0511 34.2636 63.2258 36.2378 60.5079 35.4481C59.0986 35.0533 59.0986 33.1777 59.0986 32.0919C59.0986 30.7099 58.9979 29.3279 58.7966 27.9459C58.6959 26.8601 58.7966 25.8729 59.6019 25.0832C59.7026 24.9845 60.5079 24.7871 60.4072 24.7871C60.8099 24.6884 61.1119 24.6884 61.5145 24.6884C63.1252 24.5897 66.2457 24.8858 65.6418 27.1562C65.3398 28.1433 69.2657 27.5511 69.5677 26.5639C70.7756 22.0231 62.1185 22.9115 59.7026 23.5038C57.488 24.0961 54.9714 25.3794 54.8707 27.8472C54.77 29.0318 55.1727 30.2163 55.1727 31.4009C55.2734 32.7829 54.9714 34.1649 55.4747 35.5468C56.582 38.5082 61.1119 37.1262 63.3265 37.3237C67.2524 37.6198 66.0444 42.7529 66.1451 45.2207C66.1451 46.504 67.3531 48.6757 66.3464 49.6628C65.7424 50.3538 64.3331 50.3538 63.5278 50.4525C62.7225 50.5512 61.3132 50.7487 60.7092 49.959C59.7026 48.577 60.8099 46.2079 60.6086 44.5297C60.4072 43.5426 56.3807 44.431 56.582 45.5169C56.884 48.1821 55.1727 51.6371 58.9979 52.1307C61.5145 52.4268 64.2325 51.9332 66.6484 51.2422C67.8564 50.8474 68.9637 50.2551 69.9703 49.4654C70.977 48.577 70.675 47.0963 70.373 45.9117C69.6683 42.9503 71.0776 39.5941 69.165 37.0275Z" fill="white"/>
      <path d="M86.7812 36.83C86.6805 33.0789 86.0765 29.3278 86.0765 25.5767C86.0765 23.6025 82.05 24.2934 82.05 25.8729C82.05 29.4265 82.5533 32.9802 82.7546 36.6326C82.7546 36.7313 82.7546 36.7313 82.7546 36.83C80.7413 36.83 78.8287 37.0275 76.8155 37.0275C77.0168 32.3879 76.2115 27.8471 76.4128 23.2076C76.4128 22.6153 72.4869 23.1089 72.3862 24.2934C72.1849 28.7355 72.9902 33.1776 72.8896 37.6197C72.7889 39.7914 72.6882 41.8644 72.5876 44.0361C72.5876 45.1219 72.7889 46.2078 72.8896 47.2936C72.9902 48.2808 73.3929 49.6627 73.0909 50.5512C72.8896 51.3409 76.7148 50.8473 77.0168 49.8602C77.5201 48.0833 76.8155 45.8129 76.6141 44.0361C76.4128 42.358 76.6141 40.5811 76.7148 38.8043C78.7281 38.7056 80.842 38.5082 82.8553 38.8043C82.956 40.1863 83.0566 41.5683 83.1573 42.9502C83.2579 44.1348 83.3586 45.2207 83.3586 46.4052C83.3586 47.3923 83.4593 48.873 83.1573 49.8602C82.352 51.9332 86.3785 51.7357 86.9825 50.255C87.6872 48.3795 87.4858 46.1091 87.3852 44.1348C87.1839 41.7657 86.7812 39.2979 86.7812 36.83Z" fill="white"/>
      <path d="M103.894 41.3711C102.988 38.6071 101.478 36.238 100.27 33.5728C101.277 31.5985 102.283 29.7229 103.29 27.7487C104.095 25.9718 104.8 23.8989 106.411 22.7143C107.015 22.2207 107.015 21.8259 106.109 21.7272C105.203 21.6285 103.995 21.9246 103.29 22.4182C101.78 23.6027 100.874 24.9847 100.069 26.6628C99.0622 28.7358 98.1562 30.7101 97.0489 32.6843C96.9483 32.783 96.8476 32.9805 96.8476 33.0792C96.3443 33.3753 96.0423 33.8689 96.2436 34.3625C95.4383 35.9419 94.633 37.4226 93.727 39.002C93.425 33.474 92.7204 27.9461 92.519 22.4182C92.519 21.1349 88.4925 21.9246 88.4925 23.504C88.6938 30.3152 89.7004 37.1264 89.8011 44.0364C89.8011 44.0364 89.8011 44.0364 89.8011 44.1351C89.4991 44.4312 89.5998 44.6286 89.9018 44.7273C89.9018 46.5042 89.8011 48.1823 89.7004 49.9591C89.1971 50.7489 90.2038 51.045 90.8077 51.045H90.9084C91.6131 51.045 93.5257 50.6501 93.6263 49.663C93.8277 47.59 93.9283 45.5171 93.8277 43.4441C95.4383 41.7659 96.7469 39.7917 97.9549 37.8174C98.7602 39.2981 99.4649 40.7788 99.9682 42.3582C100.874 45.1222 102.283 47.59 103.189 50.354C103.693 52.1308 107.719 51.045 107.216 49.2682C106.31 46.6029 104.901 44.0364 103.894 41.3711Z" fill="white"/>
      <path d="M127.852 36.7316C127.651 35.9419 126.443 35.8431 125.537 35.9419C125.537 35.6457 125.537 35.2509 125.537 34.9547C125.436 32.2895 125.336 29.6242 125.134 26.959C124.933 24.4911 123.524 23.6027 121.108 23.7014C118.692 23.8001 115.773 24.195 113.457 25.0834C110.84 26.0705 109.33 28.0448 108.827 30.7101C108.223 33.6715 109.028 36.929 109.229 39.8904C109.431 43.3454 109.33 46.899 109.33 50.354C109.33 50.9463 113.357 50.354 113.357 49.2681C113.357 46.5042 113.357 43.7402 113.357 40.9762C113.357 40.1865 113.256 39.3968 113.256 38.5084C114.665 37.9161 116.981 38.5084 118.39 38.6071C119.497 38.7058 120.605 38.4097 121.712 38.311C121.712 40.5814 121.813 42.9505 121.913 45.2209C121.913 46.4055 122.416 48.7746 121.511 49.7617C121.108 50.2553 123.02 50.0579 123.121 50.0579C123.926 49.9591 124.933 49.663 125.436 48.972C126.443 47.8862 125.94 45.2209 125.839 43.8389C125.738 41.9634 125.738 39.9891 125.738 38.1136C126.745 38.311 128.054 37.5213 127.852 36.7316ZM112.954 36.5341C112.853 35.2509 112.753 34.0663 112.652 32.783C112.451 30.4139 112.753 27.2551 114.967 25.7744C115.571 25.3795 116.679 25.4783 117.383 25.3795C118.39 25.1821 119.397 24.9847 120.303 25.577C121.511 26.3667 121.209 29.2294 121.209 30.4139C121.209 32.3882 121.41 34.3624 121.511 36.4354C120.907 36.5341 120.403 36.5341 119.799 36.5341C117.484 36.4354 115.169 36.1393 112.954 36.5341Z" fill="white"/>
      <path d="M49.1327 24.9844C49.6361 24.8856 50.24 24.7869 50.6427 24.4908C50.7434 24.3921 50.844 24.3921 50.9447 24.2934C51.448 23.9972 51.9513 23.5037 51.6493 22.9114C51.146 21.8255 51.2467 20.641 51.2467 19.5551C51.2467 18.568 50.24 18.2719 49.4347 18.3706C48.7301 18.4693 47.2201 18.9628 47.2201 19.8513C47.2201 20.8384 47.1195 21.8255 47.3208 22.8127C47.3208 22.9114 47.2201 23.0101 47.2201 23.2075C47.1195 23.4049 47.2201 23.6024 47.3208 23.7998V23.8985C47.3208 23.9972 47.3208 24.0959 47.3208 24.1946C47.4215 24.3921 47.5221 24.5895 47.7234 24.6882C48.1261 24.9844 48.6294 24.9844 49.1327 24.9844Z" fill="white"/>
    </g> 
  </symbol>
  <symbol id="nerds" viewBox="0 0 160 66" xmlns="http://www.w3.org/2000/svg">
    <g>
      <path fill-rule="evenodd" clip-rule="evenodd" d="M48.031 24.783C51.682 28.757 59.647 25.158 57.062 19.861C55.336 16.305 52.75 17.13 50.904 18.041C47.208 19.82 46.509 23.088 48.031 24.783ZM42.105 22.002C44.481 26.868 37.168 30.173 33.813 26.523C32.415 24.968 33.058 21.963 36.449 20.33C38.146 19.494 40.522 18.734 42.105 22.002ZM157.936 50.374C156.715 50.5332 155.442 50.6425 154.221 50.7474L154.179 50.751V50.807C151.764 68.171 127.991 71.038 127.4 57.406C127.131 51.239 138.993 49.456 150.798 48.318C151.007 42.9112 147.233 44.1234 142.648 45.5959C137.829 47.1437 132.115 48.979 129.19 43.717C124.171 34.692 143.822 25.779 145.918 27.615C152.271 33.1766 149.4 34.2063 144.727 35.8824L144.539 35.95C135.049 39.36 138.748 40.057 140.028 39.676C147.597 37.423 154.394 38.636 154.34 47.993C154.955 47.9419 155.557 47.9025 156.154 47.8634L156.154 47.8634C156.807 47.8207 157.452 47.7784 158.097 47.722C160.403 47.507 160.564 50.157 157.936 50.374ZM150.422 51.13C141.298 52.158 133.409 53.566 134.269 56.485C135.985 62.058 147.846 63.303 150.422 51.13ZM117.79 34.23C116.975 39.88 116.996 45.881 117.678 45.918C118.012 45.937 119.982 45.572 120.617 44.411C121.226 43.2934 121.794 41.7543 122.388 40.141L122.388 40.1409L122.388 40.1409L122.388 40.1408L122.388 40.1407L122.388 40.1406L122.388 40.1405C123.586 36.8907 124.895 33.3397 126.883 32.324C129.725 30.873 118.795 27.279 117.79 34.23ZM28.883 62.666C20.964 68.004 14.664 66.825 16.671 51.818C18.121 40.914 15.723 40.297 13.549 42.376C10.704 45.073 8.921 52.099 8.865 58.788C9.12323 60.3951 9.45828 61.9889 9.869 63.564C10.203 65.194 4.962 66.879 1.895 64.575C0.837 63.79 0 55.865 0 45.131C0 36.307 1.171 30.236 2.23 29.956C10.259 27.765 11.542 31.304 9.813 37.937C9.12537 40.5343 8.65871 43.1851 8.418 45.861C10.091 41.197 12.489 37.376 15.221 35.688C22.637 31.024 28.826 33.215 27.655 42.489C25.648 59.069 25.481 61.316 27.265 60.024C29.496 58.45 30.945 61.262 28.883 62.666ZM41.766 65.142C47.176 65.761 52.807 64.074 54.982 60.59C56.821 57.667 55.316 56.655 53.197 59.015C48.737 64.131 44.109 61.826 42.158 56.655L42.66 56.487C52.082 52.721 57.992 42.493 54.257 36.704C49.126 28.723 33.069 35.86 31.061 47.045C29.221 57.386 34.016 64.299 41.766 65.142ZM41.377 53.172C47.232 49.013 49.183 39.852 47.566 37.267C45.838 34.57 42.492 38.784 41.321 49.013C41.21 50.474 41.21 51.878 41.377 53.172ZM77.125 51.051C79.188 50.376 81.494 48.499 83.091 45.992C83.538 45.289 83.914 44.657 84.43 43.012C84.3675 43.2111 84.3915 43.1204 84.4509 42.8953C84.5588 42.4863 84.7839 41.6335 84.82 41.271C84.82 41.215 84.876 40.932 84.932 40.822C86.157 33.965 81.921 30.086 76.065 33.009C72.776 34.638 68.706 40.822 66.253 47.51C66.866 43.912 67.925 40.484 69.096 37.111C71.103 31.154 67.368 28.119 60.956 29.862C59.896 30.143 57.945 37.955 57.945 46.779C57.945 57.513 58.503 63.695 59.562 64.483C62.628 66.843 68.092 65.101 67.535 63.527C67.3189 62.9291 67.1554 62.3284 66.9926 61.7303L66.977 61.673C66.977 61.504 66.977 61.335 66.922 61.167C65.861 54.196 69.933 44.532 73.278 41.946C74.17 41.215 75.396 41.721 75.564 43.632C72.832 44.981 71.94 47.342 71.94 48.353C71.94 51.107 74.727 51.781 77.125 51.051Z" />
      <path fill-rule="evenodd" clip-rule="evenodd" d="M113.207 27.161C112.726 29.6539 112.354 32.1666 112.092 34.692C111.033 44.752 111.48 53.688 112.705 57.678C113.431 59.815 116.162 62.624 118.783 59.701C121.626 56.498 124.75 58.352 120.957 62.117C118.617 64.422 114.268 65.995 109.918 65.545C106.795 65.152 104.9 63.13 103.784 60.04C103.34 60.938 102.837 61.725 102.224 62.342C100.105 64.535 97.539 65.772 94.25 65.434C87.613 64.704 83.712 57.511 85.551 47.281C87.503 36.49 96.87 32.556 102.279 35.424C102.391 34.075 102.502 32.725 102.614 31.32C102.642 31.1795 102.655 31.039 102.669 30.8985C102.683 30.758 102.697 30.6175 102.724 30.477C101.079 30.8387 99.424 31.1575 97.762 31.433C73.787 35.423 82.04 15.864 87.894 10.75C94.53 5.017 95.254 8.895 93.191 10.188C89.511 12.548 87.894 26.093 98.432 26.093C100.161 26.093 101.778 25.981 103.394 25.812C106.685 7.49 116.665 -1.391 124.75 1.532C133.726 4.792 132.779 19.067 113.207 27.161ZM102.279 51.554C102.055 48.012 102.055 44.022 102.112 39.918C102.112 39.6576 102.127 39.3974 102.141 39.1449C102.155 38.9068 102.168 38.6754 102.168 38.457C98.822 36.939 95.533 42.11 94.695 49.249C93.749 57.622 97.483 62.062 99.603 60.04C101.22 58.409 102.056 53.237 102.279 51.554ZM126.365 8.389C124.581 5.747 118.058 8.951 114.267 22.721C123.802 18.167 127.593 10.299 126.365 8.389Z" />
    </g>
  </symbol>
</svg>