<?xml version="1.0" encoding="UTF-8"?>
<svg xmlns="http://www.w3.org/2000/svg" xmlns:xlink="http://www.w3.org/1999/xlink" width="200px" height="200px" viewBox="0 0 200 200" version="1.1">
<defs>
<filter id="alpha" filterUnits="objectBoundingBox" x="0%" y="0%" width="100%" height="100%">
  <feColorMatrix type="matrix" in="SourceGraphic" values="0 0 0 0 1 0 0 0 0 1 0 0 0 0 1 0 0 0 1 0"/>
</filter>
<mask id="mask0">
  <g filter="url(#alpha)">
<rect x="0" y="0" width="200" height="200" style="fill:rgb(0%,0%,0%);fill-opacity:0.439216;stroke:none;"/>
  </g>
</mask>
<clipPath id="clip1">
  <rect x="0" y="0" width="200" height="200"/>
</clipPath>
<g id="surface5" clip-path="url(#clip1)">
<path style=" stroke:none;fill-rule:nonzero;fill:rgb(20%,20%,20%);fill-opacity:1;" d="M 65.976562 129.917969 C 58.964844 137.238281 54.65625 147.175781 54.65625 158.113281 L 54.65625 196.3125 L 45.84375 196.3125 L 45.84375 158.113281 C 45.84375 144.097656 52.917969 131.722656 63.699219 124.386719 C 64.609375 126.148438 65.375 127.996094 65.976562 129.917969 Z M 65.976562 129.917969 "/>
</g>
<mask id="mask1">
  <g filter="url(#alpha)">
<rect x="0" y="0" width="200" height="200" style="fill:rgb(0%,0%,0%);fill-opacity:0.439216;stroke:none;"/>
  </g>
</mask>
<clipPath id="clip2">
  <rect x="0" y="0" width="200" height="200"/>
</clipPath>
<g id="surface8" clip-path="url(#clip2)">
<path style=" stroke:none;fill-rule:nonzero;fill:rgb(20%,20%,20%);fill-opacity:1;" d="M 119.03125 111.980469 C 117.464844 115.898438 119.933594 119.84375 119.300781 120.820312 C 116.34375 125.441406 112.476562 129.425781 107.957031 132.519531 C 107.867188 132.585938 107.777344 132.644531 107.6875 132.703125 C 101.191406 137.078125 93.367188 139.632812 84.941406 139.632812 C 82.527344 139.632812 82.128906 137.457031 80.59375 136.285156 L 80.59375 113.363281 C 86.0625 116.09375 94.066406 118.894531 100.597656 118.894531 C 108.828125 118.894531 112.628906 116.171875 119.03125 111.980469 Z M 119.03125 111.980469 "/>
</g>
<mask id="mask2">
  <g filter="url(#alpha)">
<rect x="0" y="0" width="200" height="200" style="fill:rgb(0%,0%,0%);fill-opacity:0.439216;stroke:none;"/>
  </g>
</mask>
<clipPath id="clip3">
  <rect x="0" y="0" width="200" height="200"/>
</clipPath>
<g id="surface11" clip-path="url(#clip3)">
<path style=" stroke:none;fill-rule:nonzero;fill:rgb(20%,20%,20%);fill-opacity:1;" d="M 100.230469 105.53125 L 99.765625 105.53125 C 98.746094 105.53125 97.921875 104.703125 97.921875 103.6875 C 97.921875 102.667969 98.746094 101.84375 99.765625 101.84375 L 100.230469 101.84375 C 101.25 101.84375 102.074219 102.667969 102.074219 103.6875 C 102.074219 104.703125 101.25 105.53125 100.230469 105.53125 Z M 100.230469 105.53125 "/>
</g>
<mask id="mask3">
  <g filter="url(#alpha)">
<rect x="0" y="0" width="200" height="200" style="fill:rgb(0%,0%,0%);fill-opacity:0.439216;stroke:none;"/>
  </g>
</mask>
<clipPath id="clip4">
  <rect x="0" y="0" width="200" height="200"/>
</clipPath>
<g id="surface14" clip-path="url(#clip4)">
<path style=" stroke:none;fill-rule:nonzero;fill:rgb(20%,20%,20%);fill-opacity:1;" d="M 91.535156 111.507812 C 96.15625 114.613281 101.445312 116.800781 107.140625 117.8125 C 104.824219 118.222656 102.433594 118.433594 99.996094 118.433594 C 91.574219 118.433594 83.75 115.878906 77.25 111.507812 C 77.164062 111.445312 77.070312 111.386719 76.984375 111.324219 C 66.253906 103.976562 59.214844 91.636719 59.214844 77.648438 L 59.214844 67.28125 C 59.214844 3.226562 84.507812 4.007812 84.507812 5.339844 L 79.722656 12.625 C 72.644531 23.402344 82.097656 27.164062 88.710938 37.789062 C 89.828125 39.582031 83.960938 55.722656 83.898438 57.140625 C 83.675781 62.34375 79.660156 66.984375 74.066406 67.265625 C 73.878906 67.277344 73.691406 67.28125 73.5 67.28125 L 73.5 77.648438 C 73.5 91.636719 80.542969 103.976562 91.269531 111.324219 C 91.355469 111.386719 91.449219 111.445312 91.535156 111.507812 Z M 91.535156 111.507812 "/>
</g>
<mask id="mask4">
  <g filter="url(#alpha)">
<rect x="0" y="0" width="200" height="200" style="fill:rgb(0%,0%,0%);fill-opacity:0.439216;stroke:none;"/>
  </g>
</mask>
<clipPath id="clip5">
  <rect x="0" y="0" width="200" height="200"/>
</clipPath>
<g id="surface17" clip-path="url(#clip5)">
<path style=" stroke:none;fill-rule:nonzero;fill:rgb(20%,20%,20%);fill-opacity:1;" d="M 98.386719 47.925781 C 98.386719 47.925781 103.917969 56.683594 111.75 59.445312 C 119.585938 62.210938 122.8125 101.382812 115.4375 114.746094 C 115.4375 114.746094 131.105469 111.519531 132.949219 101.382812 C 134.792969 91.246094 130.644531 47.003906 130.644531 47.003906 L 99.769531 41.933594 Z M 98.386719 47.925781 "/>
</g>
<mask id="mask5">
  <g filter="url(#alpha)">
<rect x="0" y="0" width="200" height="200" style="fill:rgb(0%,0%,0%);fill-opacity:0.439216;stroke:none;"/>
  </g>
</mask>
<clipPath id="clip6">
  <rect x="0" y="0" width="200" height="200"/>
</clipPath>
<g id="surface20" clip-path="url(#clip6)">
<path style=" stroke:none;fill-rule:nonzero;fill:rgb(20%,20%,20%);fill-opacity:1;" d="M 106.914062 3.351562 C 87.683594 6.636719 73.042969 23.382812 73.042969 43.546875 L 73.042969 58.46875 C 69.328125 60.902344 64.753906 62.925781 59.210938 63.902344 L 59.210938 43.546875 C 59.210938 21.023438 77.476562 2.765625 99.996094 2.765625 L 100 2.765625 C 102.355469 2.765625 104.667969 2.964844 106.914062 3.351562 Z M 106.914062 3.351562 "/>
</g>
</defs>
<g id="surface1">
<path style=" stroke:none;fill-rule:nonzero;fill:rgb(22.745098%,53.333333%,83.921569%);fill-opacity:1;" d="M 122.746094 118.417969 C 122.832031 118.441406 122.925781 118.460938 123.011719 118.484375 C 127.832031 119.648438 132.316406 121.675781 136.296875 124.386719 C 147.074219 131.722656 154.15625 144.097656 154.15625 158.113281 L 154.15625 197.234375 L 45.84375 197.234375 L 45.84375 158.113281 C 45.84375 144.097656 52.917969 131.722656 63.699219 124.386719 C 67.679688 121.675781 72.164062 119.648438 76.984375 118.484375 C 77.070312 118.460938 77.164062 118.441406 77.25 118.417969 "/>
<path style=" stroke:none;fill-rule:nonzero;fill:rgb(100%,82.745098%,68.235294%);fill-opacity:1;" d="M 67.519531 140.09375 L 67.519531 197.234375 L 45.84375 197.234375 L 45.84375 158.113281 C 45.84375 144.097656 52.917969 131.722656 63.699219 124.386719 C 66.140625 129.085938 67.519531 134.429688 67.519531 140.09375 Z M 67.519531 140.09375 "/>
<path style=" stroke:none;fill-rule:nonzero;fill:rgb(100%,82.745098%,68.235294%);fill-opacity:1;" d="M 154.15625 158.113281 L 154.15625 197.234375 L 132.476562 197.234375 L 132.476562 140.09375 C 132.476562 134.429688 133.855469 129.085938 136.296875 124.386719 C 147.074219 131.722656 154.15625 144.097656 154.15625 158.113281 Z M 154.15625 158.113281 "/>
<path style=" stroke:none;fill-rule:nonzero;fill:rgb(20%,20%,20%);fill-opacity:1;" d="M 157.835938 197.234375 L 152.304688 197.234375 L 152.304688 160.972656 C 152.304688 149.070312 146.925781 137.855469 137.164062 129.398438 C 127.285156 120.839844 114.128906 116.128906 100.113281 116.128906 C 71.339844 116.128906 47.925781 136.246094 47.925781 160.972656 L 47.925781 197.234375 L 42.394531 197.234375 L 42.394531 160.972656 C 42.394531 133.195312 68.289062 110.597656 100.113281 110.597656 C 115.460938 110.597656 129.902344 115.792969 140.785156 125.21875 C 151.777344 134.742188 157.835938 147.441406 157.835938 160.972656 Z M 157.835938 197.234375 "/>
<path style=" stroke:none;fill-rule:nonzero;fill:rgb(20%,20%,20%);fill-opacity:1;" d="M 135.242188 197.234375 L 129.710938 197.234375 L 129.710938 140.09375 C 129.710938 134.1875 131.140625 128.3125 133.84375 123.113281 L 138.75 125.664062 C 136.421875 130.144531 135.242188 135 135.242188 140.09375 Z M 135.242188 197.234375 "/>
<path style=" stroke:none;fill-rule:nonzero;fill:rgb(100%,100%,100%);fill-opacity:1;" d="M 144.9375 190.785156 C 143.410156 190.785156 142.171875 189.546875 142.171875 188.019531 L 142.171875 154.378906 C 142.171875 152.851562 143.410156 151.613281 144.9375 151.613281 C 146.464844 151.613281 147.703125 152.851562 147.703125 154.378906 L 147.703125 188.019531 C 147.703125 189.546875 146.464844 190.785156 144.9375 190.785156 Z M 144.9375 190.785156 "/>
<use xlink:href="#surface5" mask="url(#mask0)"/>
<path style=" stroke:none;fill-rule:nonzero;fill:rgb(20%,20%,20%);fill-opacity:1;" d="M 70.285156 197.234375 L 64.753906 197.234375 L 64.753906 140.09375 C 64.753906 134.996094 63.574219 130.144531 61.246094 125.664062 L 66.152344 123.113281 C 68.855469 128.3125 70.285156 134.1875 70.285156 140.09375 Z M 70.285156 197.234375 "/>
<path style=" stroke:none;fill-rule:nonzero;fill:rgb(20%,20%,20%);fill-opacity:1;" d="M 115.890625 186.175781 L 84.109375 186.175781 C 73.4375 186.175781 64.753906 177.492188 64.753906 166.820312 L 70.285156 166.820312 C 70.285156 174.441406 76.488281 180.644531 84.109375 180.644531 L 115.890625 180.644531 C 123.511719 180.644531 129.714844 174.441406 129.714844 166.820312 L 135.246094 166.820312 C 135.246094 177.492188 126.5625 186.175781 115.890625 186.175781 Z M 115.890625 186.175781 "/>
<path style=" stroke:none;fill-rule:nonzero;fill:rgb(100%,100%,100%);fill-opacity:1;" d="M 115.890625 177.878906 C 114.363281 177.878906 113.125 176.640625 113.125 175.113281 C 113.125 173.589844 114.363281 172.351562 115.890625 172.351562 C 118.9375 172.351562 121.417969 169.871094 121.417969 166.820312 C 121.417969 165.292969 122.65625 164.054688 124.183594 164.054688 C 125.710938 164.054688 126.949219 165.292969 126.949219 166.820312 C 126.949219 172.917969 121.988281 177.878906 115.890625 177.878906 Z M 115.890625 177.878906 "/>
<path style=" stroke:none;fill-rule:nonzero;fill:rgb(20%,20%,20%);fill-opacity:1;" d="M 160.597656 200 L 39.507812 200 C 37.980469 200 36.742188 198.761719 36.742188 197.234375 C 36.742188 195.707031 37.980469 194.46875 39.507812 194.46875 L 160.597656 194.46875 C 162.125 194.46875 163.363281 195.707031 163.363281 197.234375 C 163.363281 198.761719 162.125 200 160.597656 200 Z M 160.597656 200 "/>
<path style=" stroke:none;fill-rule:nonzero;fill:rgb(20%,20%,20%);fill-opacity:1;" d="M 175.34375 200 L 170.277344 200 C 168.75 200 167.511719 198.761719 167.511719 197.234375 C 167.511719 195.707031 168.75 194.46875 170.277344 194.46875 L 175.34375 194.46875 C 176.871094 194.46875 178.109375 195.707031 178.109375 197.234375 C 178.109375 198.761719 176.871094 200 175.34375 200 Z M 175.34375 200 "/>
<path style=" stroke:none;fill-rule:nonzero;fill:rgb(20%,20%,20%);fill-opacity:1;" d="M 29.722656 200 L 24.65625 200 C 23.128906 200 21.890625 198.761719 21.890625 197.234375 C 21.890625 195.707031 23.128906 194.46875 24.65625 194.46875 L 29.722656 194.46875 C 31.25 194.46875 32.488281 195.707031 32.488281 197.234375 C 32.488281 198.761719 31.25 200 29.722656 200 Z M 29.722656 200 "/>
<path style=" stroke:none;fill-rule:nonzero;fill:rgb(100%,100%,100%);fill-opacity:1;" d="M 115.894531 17.988281 C 115.433594 17.988281 114.96875 17.871094 114.539062 17.628906 C 113.191406 16.871094 111.773438 16.210938 110.328125 15.675781 C 108.894531 15.140625 108.167969 13.550781 108.699219 12.121094 C 109.230469 10.6875 110.820312 9.960938 112.253906 10.492188 C 113.972656 11.128906 115.65625 11.910156 117.253906 12.8125 C 118.585938 13.5625 119.054688 15.25 118.304688 16.578125 C 117.796875 17.480469 116.859375 17.988281 115.894531 17.988281 Z M 115.894531 17.988281 "/>
<path style=" stroke:none;fill-rule:nonzero;fill:rgb(100%,82.745098%,68.235294%);fill-opacity:1;" d="M 119.300781 113.363281 L 119.300781 143.484375 C 119.300781 150.261719 113.804688 155.761719 107.027344 155.761719 L 92.867188 155.761719 C 86.089844 155.761719 80.59375 150.261719 80.59375 143.484375 L 80.59375 113.363281 C 86.351562 116.476562 92.941406 118.238281 99.941406 118.238281 C 106.953125 118.238281 113.542969 116.476562 119.300781 113.363281 Z M 119.300781 113.363281 "/>
<path style=" stroke:none;fill-rule:nonzero;fill:rgb(20%,20%,20%);fill-opacity:1;" d="M 107.027344 158.523438 L 92.867188 158.523438 C 84.574219 158.523438 77.828125 151.777344 77.828125 143.484375 L 77.828125 113.363281 L 83.359375 113.363281 L 83.359375 143.484375 C 83.359375 148.730469 87.625 152.996094 92.867188 152.996094 L 107.027344 152.996094 C 112.269531 152.996094 116.539062 148.730469 116.539062 143.484375 L 116.539062 113.363281 L 122.066406 113.363281 L 122.066406 143.484375 C 122.066406 151.777344 115.320312 158.523438 107.027344 158.523438 Z M 107.027344 158.523438 "/>
<path style=" stroke:none;fill-rule:nonzero;fill:rgb(20%,20%,20%);fill-opacity:1;" d="M 99.949219 158.523438 C 98.421875 158.523438 97.183594 157.285156 97.183594 155.761719 L 97.183594 148.847656 C 97.183594 147.320312 98.421875 146.082031 99.949219 146.082031 C 101.472656 146.082031 102.710938 147.320312 102.710938 148.847656 L 102.710938 155.761719 C 102.710938 157.285156 101.472656 158.523438 99.949219 158.523438 Z M 99.949219 158.523438 "/>
<use xlink:href="#surface8" mask="url(#mask1)"/>
<path style=" stroke:none;fill-rule:nonzero;fill:rgb(100%,82.745098%,68.235294%);fill-opacity:1;" d="M 75.722656 67.28125 C 75.722656 74.378906 69.96875 80.132812 62.871094 80.132812 C 55.773438 80.132812 50.015625 74.378906 50.015625 67.28125 C 50.015625 60.183594 55.773438 54.429688 62.871094 54.429688 C 69.96875 54.429688 75.722656 60.183594 75.722656 67.28125 Z M 75.722656 67.28125 "/>
<path style=" stroke:none;fill-rule:nonzero;fill:rgb(100%,82.745098%,68.235294%);fill-opacity:1;" d="M 149.976562 67.28125 C 149.976562 74.378906 144.222656 80.132812 137.125 80.132812 C 130.027344 80.132812 124.273438 74.378906 124.273438 67.28125 C 124.273438 60.183594 130.027344 54.429688 137.125 54.429688 C 144.222656 54.429688 149.976562 60.183594 149.976562 67.28125 Z M 149.976562 67.28125 "/>
<path style=" stroke:none;fill-rule:nonzero;fill:rgb(20%,20%,20%);fill-opacity:1;" d="M 62.871094 82.898438 C 54.257812 82.898438 47.253906 75.894531 47.253906 67.28125 C 47.253906 58.667969 54.257812 51.664062 62.871094 51.664062 C 71.480469 51.664062 78.488281 58.667969 78.488281 67.28125 C 78.488281 75.894531 71.480469 82.898438 62.871094 82.898438 Z M 62.871094 57.195312 C 57.308594 57.195312 52.78125 61.71875 52.78125 67.28125 C 52.78125 72.84375 57.308594 77.367188 62.871094 77.367188 C 68.433594 77.367188 72.957031 72.84375 72.957031 67.28125 C 72.957031 61.71875 68.433594 57.195312 62.871094 57.195312 Z M 62.871094 57.195312 "/>
<path style=" stroke:none;fill-rule:nonzero;fill:rgb(20%,20%,20%);fill-opacity:1;" d="M 137.125 82.898438 C 128.515625 82.898438 121.507812 75.894531 121.507812 67.28125 C 121.507812 58.667969 128.515625 51.664062 137.125 51.664062 C 145.738281 51.664062 152.742188 58.667969 152.742188 67.28125 C 152.742188 75.894531 145.738281 82.898438 137.125 82.898438 Z M 137.125 57.195312 C 131.5625 57.195312 127.039062 61.71875 127.039062 67.28125 C 127.039062 72.84375 131.5625 77.367188 137.125 77.367188 C 142.6875 77.367188 147.214844 72.84375 147.214844 67.28125 C 147.214844 61.71875 142.6875 57.195312 137.125 57.195312 Z M 137.125 57.195312 "/>
<path style=" stroke:none;fill-rule:nonzero;fill:rgb(100%,82.745098%,68.235294%);fill-opacity:1;" d="M 122.746094 111.507812 C 116.246094 115.878906 108.421875 118.433594 99.996094 118.433594 C 91.574219 118.433594 83.75 115.878906 77.25 111.507812 C 77.164062 111.445312 77.070312 111.386719 76.984375 111.324219 C 66.253906 103.976562 59.214844 91.636719 59.214844 77.648438 L 59.214844 43.546875 C 59.214844 21.023438 77.472656 2.765625 99.996094 2.765625 C 122.523438 2.765625 140.78125 21.023438 140.78125 43.546875 L 140.78125 77.648438 C 140.78125 91.636719 133.738281 103.976562 123.011719 111.324219 C 122.925781 111.386719 122.832031 111.445312 122.746094 111.507812 Z M 122.746094 111.507812 "/>
<path style=" stroke:none;fill-rule:nonzero;fill:rgb(96.862745%,46.666667%,29.411765%);fill-opacity:1;" d="M 99.996094 99.542969 C 97.753906 99.542969 95.511719 99.308594 93.28125 98.835938 C 91.789062 98.519531 90.835938 97.050781 91.152344 95.558594 C 91.46875 94.0625 92.933594 93.109375 94.429688 93.425781 C 98.125 94.210938 101.871094 94.207031 105.566406 93.425781 C 107.058594 93.109375 108.527344 94.0625 108.84375 95.558594 C 109.160156 97.050781 108.207031 98.519531 106.714844 98.835938 C 104.484375 99.308594 102.242188 99.542969 99.996094 99.542969 Z M 99.996094 99.542969 "/>
<use xlink:href="#surface11" mask="url(#mask2)"/>
<path style=" stroke:none;fill-rule:nonzero;fill:rgb(20%,20%,20%);fill-opacity:1;" d="M 113.144531 64.707031 C 111.886719 64.707031 110.753906 63.847656 110.453125 62.570312 C 110.105469 61.082031 111.03125 59.597656 112.515625 59.25 C 116.988281 58.203125 121.714844 58.203125 126.1875 59.25 C 127.675781 59.597656 128.597656 61.082031 128.25 62.570312 C 127.902344 64.058594 126.417969 64.980469 124.929688 64.632812 C 121.28125 63.78125 117.425781 63.78125 113.777344 64.632812 C 113.566406 64.683594 113.351562 64.707031 113.144531 64.707031 Z M 113.144531 64.707031 "/>
<use xlink:href="#surface14" mask="url(#mask3)"/>
<path style=" stroke:none;fill-rule:nonzero;fill:rgb(20%,20%,20%);fill-opacity:1;" d="M 87.863281 72.402344 C 87.863281 74.441406 86.210938 76.09375 84.171875 76.09375 C 82.132812 76.09375 80.480469 74.441406 80.480469 72.402344 C 80.480469 70.367188 82.132812 68.714844 84.171875 68.714844 C 86.210938 68.714844 87.863281 70.367188 87.863281 72.402344 Z M 87.863281 72.402344 "/>
<path style=" stroke:none;fill-rule:nonzero;fill:rgb(20%,20%,20%);fill-opacity:1;" d="M 77.109375 75.671875 C 76.402344 75.671875 75.695312 75.402344 75.15625 74.863281 C 74.074219 73.785156 74.074219 72.035156 75.152344 70.953125 C 77.984375 68.109375 82.316406 67.386719 85.921875 69.148438 C 87.296875 69.820312 87.863281 71.476562 87.191406 72.847656 C 86.523438 74.21875 84.867188 74.789062 83.496094 74.117188 C 82.011719 73.390625 80.230469 73.691406 79.066406 74.859375 C 78.527344 75.402344 77.816406 75.671875 77.109375 75.671875 Z M 77.109375 75.671875 "/>
<path style=" stroke:none;fill-rule:nonzero;fill:rgb(20%,20%,20%);fill-opacity:1;" d="M 119.511719 72.402344 C 119.511719 74.441406 117.859375 76.09375 115.824219 76.09375 C 113.785156 76.09375 112.132812 74.441406 112.132812 72.402344 C 112.132812 70.367188 113.785156 68.714844 115.824219 68.714844 C 117.859375 68.714844 119.511719 70.367188 119.511719 72.402344 Z M 119.511719 72.402344 "/>
<path style=" stroke:none;fill-rule:nonzero;fill:rgb(20%,20%,20%);fill-opacity:1;" d="M 122.886719 75.671875 C 122.179688 75.671875 121.46875 75.402344 120.929688 74.859375 C 119.761719 73.691406 117.984375 73.390625 116.5 74.117188 C 115.128906 74.789062 113.472656 74.21875 112.804688 72.847656 C 112.132812 71.476562 112.703125 69.820312 114.074219 69.148438 C 117.679688 67.386719 122.011719 68.109375 124.84375 70.953125 C 125.921875 72.035156 125.921875 73.785156 124.839844 74.863281 C 124.300781 75.402344 123.59375 75.671875 122.886719 75.671875 Z M 122.886719 75.671875 "/>
<path style=" stroke:none;fill-rule:nonzero;fill:rgb(20%,20%,20%);fill-opacity:1;" d="M 96.796875 87.097656 C 95.269531 87.097656 94.03125 85.859375 94.03125 84.332031 L 94.03125 69.15625 C 94.03125 67.898438 93.351562 66.773438 92.253906 66.21875 C 88.941406 64.550781 83.257812 62.925781 75 64.648438 C 73.507812 64.960938 72.042969 64 71.730469 62.507812 C 71.417969 61.011719 72.375 59.546875 73.871094 59.234375 C 83.691406 57.183594 90.640625 59.214844 94.742188 61.28125 C 97.714844 62.777344 99.5625 65.796875 99.5625 69.15625 L 99.5625 84.332031 C 99.5625 85.859375 98.324219 87.097656 96.796875 87.097656 Z M 96.796875 87.097656 "/>
<use xlink:href="#surface17" mask="url(#mask4)"/>
<path style=" stroke:none;fill-rule:nonzero;fill:rgb(65.098039%,48.627451%,32.156863%);fill-opacity:1;" d="M 59.210938 63.902344 C 79.699219 60.296875 86.863281 42.394531 86.863281 42.394531 L 87.042969 42.246094 C 89.902344 45.609375 94.324219 48.226562 101.148438 48.386719 C 119.339844 48.8125 136.367188 70.597656 126.355469 108.765625 C 125.460938 112.164062 124.355469 115.695312 123.015625 119.355469 C 123.015625 119.355469 140.777344 105.070312 140.777344 77.648438 L 140.785156 77.648438 L 140.785156 43.546875 C 140.785156 21.023438 122.519531 2.765625 100 2.765625 L 99.996094 2.765625 C 77.476562 2.765625 59.210938 21.023438 59.210938 43.546875 Z M 59.210938 63.902344 "/>
<use xlink:href="#surface20" mask="url(#mask5)"/>
<path style=" stroke:none;fill-rule:nonzero;fill:rgb(20%,20%,20%);fill-opacity:1;" d="M 100 121.199219 C 91.296875 121.199219 82.894531 118.640625 75.703125 113.800781 C 75.679688 113.785156 75.652344 113.765625 75.628906 113.746094 L 75.585938 113.71875 C 75.519531 113.675781 75.453125 113.628906 75.390625 113.582031 C 63.527344 105.445312 56.445312 92.015625 56.445312 77.648438 L 56.445312 43.546875 C 56.445312 19.535156 75.984375 0 99.996094 0 C 124.011719 0 143.546875 19.535156 143.546875 43.546875 L 143.546875 77.648438 L 138.019531 77.648438 L 138.019531 43.546875 C 138.019531 22.585938 120.964844 5.53125 100 5.53125 C 79.03125 5.53125 61.976562 22.585938 61.976562 43.546875 L 61.976562 77.648438 C 61.976562 90.203125 68.171875 101.9375 78.542969 109.039062 C 78.570312 109.058594 78.597656 109.078125 78.621094 109.097656 L 78.667969 109.128906 C 78.71875 109.164062 78.773438 109.199219 78.820312 109.234375 C 85.089844 113.441406 92.414062 115.667969 100 115.667969 C 107.59375 115.667969 114.921875 113.4375 121.199219 109.214844 L 121.332031 109.125 C 121.378906 109.089844 121.402344 109.070312 121.449219 109.039062 C 122.523438 108.304688 123.570312 107.507812 124.558594 106.660156 L 128.148438 110.867188 C 127.027344 111.828125 125.839844 112.734375 124.621094 113.570312 C 124.503906 113.65625 124.378906 113.742188 124.253906 113.824219 C 117.09375 118.640625 108.699219 121.199219 100 121.199219 Z M 100 121.199219 "/>
<path style=" stroke:none;fill-rule:nonzero;fill:rgb(100%,100%,100%);fill-opacity:1;" d="M 132.488281 62.671875 C 130.960938 62.671875 129.722656 61.433594 129.722656 59.90625 L 129.722656 43.546875 C 129.722656 36.332031 127.09375 29.371094 122.324219 23.945312 C 121.3125 22.796875 121.425781 21.050781 122.574219 20.042969 C 123.71875 19.035156 125.46875 19.144531 126.476562 20.292969 C 132.136719 26.730469 135.253906 34.988281 135.253906 43.546875 L 135.253906 59.90625 C 135.253906 61.433594 134.015625 62.671875 132.488281 62.671875 Z M 132.488281 62.671875 "/>
<path style=" stroke:none;fill-rule:nonzero;fill:rgb(20%,20%,20%);fill-opacity:1;" d="M 140.773438 81.300781 C 140.761719 81.300781 140.746094 81.300781 140.734375 81.300781 C 139.207031 81.277344 137.988281 80.027344 138.007812 78.503906 L 138.007812 78.488281 C 138.015625 78.207031 138.019531 77.929688 138.019531 77.648438 C 138.019531 76.125 139.257812 74.886719 140.785156 74.886719 C 142.308594 74.886719 143.546875 76.125 143.546875 77.648438 C 143.546875 77.960938 143.542969 78.265625 143.539062 78.574219 C 143.515625 80.085938 142.28125 81.300781 140.773438 81.300781 Z M 140.773438 81.300781 "/>
<path style=" stroke:none;fill-rule:nonzero;fill:rgb(20%,20%,20%);fill-opacity:1;" d="M 123.015625 122.121094 C 122.449219 122.121094 121.886719 121.949219 121.402344 121.601562 C 120.394531 120.878906 119.992188 119.570312 120.417969 118.402344 C 121.695312 114.917969 122.792969 111.4375 123.679688 108.0625 C 130.582031 81.753906 123.679688 67.289062 118.949219 61.007812 C 114.285156 54.8125 107.9375 51.3125 101.082031 51.152344 C 94.246094 50.988281 88.8125 48.597656 84.933594 44.035156 C 78.875 36.910156 79.019531 27.082031 79.027344 26.667969 C 79.0625 25.140625 80.328125 23.933594 81.851562 23.964844 C 83.378906 23.996094 84.585938 25.257812 84.558594 26.78125 C 84.554688 26.90625 84.488281 34.972656 89.148438 40.453125 C 91.960938 43.761719 96.019531 45.5 101.214844 45.621094 C 109.667969 45.820312 117.746094 50.214844 123.367188 57.683594 C 128.554688 64.570312 136.097656 80.035156 129.605469 107.164062 C 133.804688 100.5 138.015625 90.589844 138.015625 77.648438 C 138.015625 76.125 139.253906 74.886719 140.777344 74.886719 C 142.304688 74.886719 143.542969 76.125 143.542969 77.648438 C 143.542969 106.066406 125.515625 120.894531 124.746094 121.511719 C 124.242188 121.914062 123.628906 122.121094 123.015625 122.121094 Z M 123.015625 122.121094 "/>
<path style=" stroke:none;fill-rule:nonzero;fill:rgb(20%,20%,20%);fill-opacity:1;" d="M 59.207031 66.667969 C 57.890625 66.667969 56.726562 65.722656 56.488281 64.382812 C 56.222656 62.878906 57.230469 61.445312 58.734375 61.179688 C 77.382812 57.894531 84.023438 42.035156 84.296875 41.363281 C 84.871094 39.949219 86.480469 39.265625 87.894531 39.835938 C 89.308594 40.40625 89.996094 42.007812 89.429688 43.425781 C 89.113281 44.214844 81.445312 62.796875 59.691406 66.625 C 59.53125 66.65625 59.367188 66.667969 59.207031 66.667969 Z M 59.207031 66.667969 "/>
</g>
</svg>
